<?xml version="1.0" encoding="UTF-8"?>
<!DOCTYPE svg PUBLIC "-//W3C//DTD SVG 1.1//EN" "http://www.w3.org/Graphics/SVG/1.1/DTD/svg11.dtd">
<svg xmlns="http://www.w3.org/2000/svg" version="1.1" width="564px" height="571px" style="shape-rendering:geometricPrecision; text-rendering:geometricPrecision; image-rendering:optimizeQuality; fill-rule:evenodd; clip-rule:evenodd" xmlns:xlink="http://www.w3.org/1999/xlink">
<g><path style="opacity:0.984" fill="#fbfbfa" d="M 257.5,-0.5 C 273.5,-0.5 289.5,-0.5 305.5,-0.5C 413.552,13.0701 491.385,68.7367 539,166.5C 552.202,196.646 560.369,227.98 563.5,260.5C 563.5,276.833 563.5,293.167 563.5,309.5C 552.424,408.536 504.424,483.703 419.5,535C 383.786,554.588 345.786,566.421 305.5,570.5C 289.5,570.5 273.5,570.5 257.5,570.5C 149.447,556.929 71.6138,501.262 24,403.5C 10.7977,373.353 2.63106,342.019 -0.5,309.5C -0.5,293.167 -0.5,276.833 -0.5,260.5C 10.5754,161.465 58.5754,86.2984 143.5,35C 179.215,15.4117 217.215,3.57833 257.5,-0.5 Z"/></g>
<g><path style="opacity:1" fill="#181818" d="M 295.5,42.5 C 292.5,43.8333 289.5,43.8333 286.5,42.5C 286.666,34.8261 286.5,27.1594 286,19.5C 282.059,27.716 278.392,36.0493 275,44.5C 270.899,37.2974 267.066,29.9641 263.5,22.5C 263.217,21.7109 262.717,21.0442 262,20.5C 261.179,27.6791 261.345,34.6791 262.5,41.5C 262.833,42.5 263.5,43.1667 264.5,43.5C 262.833,44.8333 261.167,44.8333 259.5,43.5C 260.821,35.3242 260.821,26.9909 259.5,18.5C 258.205,17.9017 256.872,17.4017 255.5,17C 259.833,16.3333 264.167,16.3333 268.5,17C 271.373,22.58 274.373,28.08 277.5,33.5C 280.283,27.9923 282.783,22.3256 285,16.5C 290.25,15.1584 293.417,15.1584 294.5,16.5C 294.174,25.3494 294.507,34.0161 295.5,42.5 Z"/></g>
<g><path style="opacity:1" fill="#151515" d="M 329.5,40.5 C 329.737,39.209 329.404,38.209 328.5,37.5C 327.957,34.7816 327.291,32.115 326.5,29.5C 326.167,28.8333 325.833,28.1667 325.5,27.5C 326.644,24.5534 328.311,21.8867 330.5,19.5C 333.395,28.8 336.228,38.1333 339,47.5C 339.5,48.6667 340.333,49.5 341.5,50C 336.742,50.2077 332.075,49.541 327.5,48C 328.448,47.5172 329.448,47.3505 330.5,47.5C 330.552,45.0971 330.219,42.7638 329.5,40.5 Z"/></g>
<g><path style="opacity:1" fill="#101010" d="M 236.5,40.5 C 236.5,40.1667 236.5,39.8333 236.5,39.5C 237.376,39.6309 238.043,39.2975 238.5,38.5C 237.069,35.9613 235.403,33.6279 233.5,31.5C 232.449,30.7777 231.782,29.7777 231.5,28.5C 231.721,25.6081 232.554,22.9415 234,20.5C 240.136,29.27 246.636,37.77 253.5,46C 250.207,46.8256 246.874,47.3256 243.5,47.5C 243.137,43.0547 240.803,40.7214 236.5,40.5 Z"/></g>
<g><path style="opacity:1" fill="#191919" d="M 352.5,25.5 C 352.56,24.9569 352.893,24.6236 353.5,24.5C 357.167,26 360.833,27.5 364.5,29C 363.667,29.8333 362.833,30.6667 362,31.5C 359.829,38.0133 357.662,44.5133 355.5,51C 355.585,52.1074 355.919,53.1074 356.5,54C 360.406,55.434 364.406,55.7673 368.5,55C 370.019,53.6487 371.352,52.1487 372.5,50.5C 372.833,50.8333 373.167,51.1667 373.5,51.5C 371.903,54.3705 370.07,57.0372 368,59.5C 359.669,57.0452 351.503,54.2118 343.5,51C 345.101,50.7266 346.601,50.2266 348,49.5C 350.303,42.2581 352.803,35.0915 355.5,28C 354.87,26.6898 353.87,25.8565 352.5,25.5 Z"/></g>
<g><path style="opacity:1" fill="#e9e9e9" d="M 326.5,29.5 C 327.291,32.115 327.957,34.7816 328.5,37.5C 328.265,38.0967 327.765,38.4301 327,38.5C 324.774,38.0216 322.608,37.355 320.5,36.5C 321.856,33.4867 323.856,31.1533 326.5,29.5 Z"/></g>
<g><path style="opacity:1" fill="#151515" d="M 196.5,30.5 C 197.552,30.3505 198.552,30.5172 199.5,31C 197.82,31.3468 196.82,32.3468 196.5,34C 199.187,41.0583 201.687,48.225 204,55.5C 212.332,56.1782 216.665,52.1782 217,43.5C 218.461,46.6786 219.295,50.0119 219.5,53.5C 211.995,56.2941 204.328,58.6274 196.5,60.5C 195.056,52.6627 192.889,44.996 190,37.5C 188.829,36.1068 187.329,35.2735 185.5,35C 189.307,33.5716 192.974,32.0716 196.5,30.5 Z"/></g>
<g><path style="opacity:1" fill="#e7e7e7" d="M 233.5,31.5 C 235.403,33.6279 237.069,35.9613 238.5,38.5C 238.043,39.2975 237.376,39.6309 236.5,39.5C 234.131,39.8511 231.797,40.0178 229.5,40C 230.181,36.7581 231.514,33.9248 233.5,31.5 Z"/></g>
<g><path style="opacity:1" fill="#5d5d5d" d="M 263.5,22.5 C 262.51,28.6446 262.177,34.9779 262.5,41.5C 261.345,34.6791 261.179,27.6791 262,20.5C 262.717,21.0442 263.217,21.7109 263.5,22.5 Z"/></g>
<g><path style="opacity:1" fill="#2e2e2e" d="M 325.5,27.5 C 325.833,28.1667 326.167,28.8333 326.5,29.5C 323.856,31.1533 321.856,33.4867 320.5,36.5C 322.608,37.355 324.774,38.0216 327,38.5C 327.765,38.4301 328.265,38.0967 328.5,37.5C 329.404,38.209 329.737,39.209 329.5,40.5C 326.193,40.5385 323.026,39.8718 320,38.5C 317.646,39.3561 316.146,41.0228 315.5,43.5C 316.09,44.7989 317.09,45.6322 318.5,46C 315.485,46.2009 312.485,45.8676 309.5,45C 311.96,43.5422 314.127,41.7089 316,39.5C 318.65,35.0251 321.817,31.0251 325.5,27.5 Z"/></g>
<g><path style="opacity:1" fill="#2a2a2a" d="M 231.5,28.5 C 231.782,29.7777 232.449,30.7777 233.5,31.5C 231.514,33.9248 230.181,36.7581 229.5,40C 231.797,40.0178 234.131,39.8511 236.5,39.5C 236.5,39.8333 236.5,40.1667 236.5,40.5C 234.107,41.21 231.607,41.8767 229,42.5C 228.503,44.8098 228.337,47.1432 228.5,49.5C 229.873,49.3433 231.207,49.51 232.5,50C 229.137,50.6257 225.804,50.9591 222.5,51C 223.416,50.6258 224.25,50.1258 225,49.5C 227.242,42.3904 229.409,35.3904 231.5,28.5 Z"/></g>
<g><path style="opacity:1" fill="#636363" d="M 286.5,42.5 C 289.5,43.8333 292.5,43.8333 295.5,42.5C 296.675,42.281 297.675,42.6143 298.5,43.5C 293.198,44.6628 287.864,44.8295 282.5,44C 283.901,43.5899 285.234,43.0899 286.5,42.5 Z"/></g>
<g><path style="opacity:1" fill="#8a8a8a" d="M 259.5,43.5 C 261.167,44.8333 262.833,44.8333 264.5,43.5C 265.376,43.3691 266.043,43.7025 266.5,44.5C 263.167,45.8333 259.833,45.8333 256.5,44.5C 257.325,43.6143 258.325,43.281 259.5,43.5 Z"/></g>
<g><path style="opacity:1" fill="#191919" d="M 175.5,39.5 C 177.749,41.3307 178.915,43.6641 179,46.5C 174.924,42.966 170.591,42.6326 166,45.5C 165.505,47.4727 165.338,49.4727 165.5,51.5C 170.844,51.334 176.177,51.5006 181.5,52C 187.68,54.7355 189.18,59.2355 186,65.5C 182.557,68.8739 178.39,70.7072 173.5,71C 172.874,71.7504 172.374,72.5838 172,73.5C 170.054,70.6228 168.721,67.6228 168,64.5C 173.407,69.7655 178.74,69.7655 184,64.5C 184.561,61.7019 183.394,59.8686 180.5,59C 175.5,58.6667 170.5,58.3333 165.5,58C 159.525,51.5113 160.525,46.1779 168.5,42C 171.361,42.0302 173.695,41.1969 175.5,39.5 Z"/></g>
<g><path style="opacity:1" fill="#131313" d="M 393.5,40.5 C 393.56,39.9569 393.893,39.6236 394.5,39.5C 399.675,42.588 405.008,45.4213 410.5,48C 415.447,50.7562 416.613,54.5895 414,59.5C 411.595,60.2744 409.095,60.7744 406.5,61C 411.778,65.5085 411.778,69.8419 406.5,74C 404.167,74.6667 401.833,74.6667 399.5,74C 393.5,71 387.5,68 381.5,65C 383.256,64.7978 384.922,64.2978 386.5,63.5C 390.311,56.5638 393.477,49.5638 396,42.5C 395.292,41.6195 394.458,40.9528 393.5,40.5 Z"/></g>
<g><path style="opacity:1" fill="#ebebeb" d="M 403.5,46.5 C 408.793,48.7488 409.793,52.2488 406.5,57C 404.167,57.6667 401.833,57.6667 399.5,57C 399.043,56.586 398.709,56.086 398.5,55.5C 399.925,52.3116 401.592,49.3116 403.5,46.5 Z"/></g>
<g><path style="opacity:1" fill="#fdfdb6" d="M 297.5,51.5 C 304.386,51.3974 311.053,52.064 317.5,53.5C 310.626,53.4793 303.959,52.8127 297.5,51.5 Z"/></g>
<g><path style="opacity:1" fill="#ece509" d="M 297.5,51.5 C 303.959,52.8127 310.626,53.4793 317.5,53.5C 353.381,59.2313 386.048,72.5646 415.5,93.5C 415.904,94.7564 416.571,95.9231 417.5,97C 416.293,98.3002 415.626,99.8002 415.5,101.5C 417.262,101.357 418.929,101.691 420.5,102.5C 423.193,100.004 424.859,100.67 425.5,104.5C 422.102,104.18 418.768,104.513 415.5,105.5C 416.82,107.491 418.154,109.491 419.5,111.5C 420.086,111.291 420.586,110.957 421,110.5C 421.816,111.823 422.983,112.489 424.5,112.5C 475.082,181.488 484.248,255.821 452,335.5C 418.442,406.71 362.275,444.71 283.5,449.5C 276.41,449.527 269.41,448.861 262.5,447.5C 258.455,445.823 254.122,445.156 249.5,445.5C 194.203,432.435 152.703,401.102 125,351.5C 110.318,324.174 101.484,295.174 98.5,264.5C 98.1714,251.989 98.5048,239.655 99.5,227.5C 100.921,222.02 102.088,216.354 103,210.5C 104.205,209.929 105.372,209.262 106.5,208.5C 106.73,205.64 106.396,202.64 105.5,199.5C 105.667,198.5 105.833,197.5 106,196.5C 106.29,198.044 106.956,199.377 108,200.5C 108.778,197.725 108.278,195.225 106.5,193C 108.203,187.892 109.703,182.725 111,177.5C 111.667,178.833 112.667,179.833 114,180.5C 114.499,175.845 114.666,171.179 114.5,166.5C 123.412,145.498 134.745,125.998 148.5,108C 147.423,107.53 146.423,107.697 145.5,108.5C 145.217,107.711 144.717,107.044 144,106.5C 141.663,109.426 138.829,110.426 135.5,109.5C 136.18,108.14 136.847,106.807 137.5,105.5C 139.589,105.143 141.589,104.477 143.5,103.5C 147.647,100.246 151.647,96.7455 155.5,93C 156.833,93 158.167,93 159.5,93C 159.167,92.6667 158.833,92.3333 158.5,92C 159.823,91.1841 160.489,90.0174 160.5,88.5C 171.536,79.5861 183.869,72.9195 197.5,68.5C 203.533,67.2685 209.2,65.2685 214.5,62.5C 217.801,60.4232 221.468,59.4232 225.5,59.5C 228.456,58.8629 231.456,58.3629 234.5,58C 236.066,57.3918 237.4,56.5585 238.5,55.5C 245.716,55.1863 252.716,54.0196 259.5,52C 272.162,51.5001 284.829,51.3334 297.5,51.5 Z"/></g>
<g><path style="opacity:1" fill="#848484" d="M 151.5,56.5 C 150.833,55.5 150.167,54.5 149.5,53.5C 150.688,52.6364 151.855,51.6364 153,50.5C 152.405,52.3502 151.905,54.3502 151.5,56.5 Z"/></g>
<g><path style="opacity:1" fill="#121212" d="M 149.5,53.5 C 150.167,54.5 150.833,55.5 151.5,56.5C 155.11,62.6164 158.943,68.6164 163,74.5C 164.067,75.1905 165.234,75.6905 166.5,76C 163.941,77.7774 161.274,79.2774 158.5,80.5C 157.833,79.8333 157.167,79.1667 156.5,78.5C 153.011,72.8613 149.511,67.1946 146,61.5C 144.509,59.9963 142.676,59.1629 140.5,59C 143.528,57.1555 146.528,55.3222 149.5,53.5 Z"/></g>
<g><path style="opacity:1" fill="#f8fa88" d="M 238.5,55.5 C 237.4,56.5585 236.066,57.3918 234.5,58C 231.456,58.3629 228.456,58.8629 225.5,59.5C 225.611,58.8826 225.944,58.3826 226.5,58C 230.594,57.4431 234.594,56.6098 238.5,55.5 Z"/></g>
<g><path style="opacity:1" fill="#eeeeee" d="M 396.5,58.5 C 404.103,59.9561 405.436,63.7894 400.5,70C 397.107,71.1675 394.441,70.3342 392.5,67.5C 394.12,64.5963 395.453,61.5963 396.5,58.5 Z"/></g>
<g><path style="opacity:1" fill="#fcfba0" d="M 214.5,62.5 C 209.2,65.2685 203.533,67.2685 197.5,68.5C 202.622,65.3457 208.289,63.3457 214.5,62.5 Z"/></g>
<g><path style="opacity:1" fill="#141414" d="M 428.5,83.5 C 428.833,82.8333 429.167,82.1667 429.5,81.5C 429.616,78.1401 429.949,74.8067 430.5,71.5C 430.5,70.8333 430.5,70.1667 430.5,69.5C 432.643,67.9257 434.976,66.5923 437.5,65.5C 437.833,66.1667 438.167,66.8333 438.5,67.5C 435.933,77.7877 434.766,88.121 435,98.5C 431.833,96 428.667,93.5 425.5,91C 427.055,88.745 428.055,86.245 428.5,83.5 Z"/></g>
<g><path style="opacity:1" fill="#2e2e2e" d="M 430.5,69.5 C 430.5,70.1667 430.5,70.8333 430.5,71.5C 420.392,74.3108 420.059,77.6441 429.5,81.5C 429.167,82.1667 428.833,82.8333 428.5,83.5C 425.518,81.5258 422.518,79.5258 419.5,77.5C 416.454,78.3294 414.787,80.3294 414.5,83.5C 412.641,81.8076 410.641,80.3076 408.5,79C 410.5,78.6667 412.5,78.3333 414.5,78C 419.702,74.8994 425.035,72.0661 430.5,69.5 Z"/></g>
<g><path style="opacity:1" fill="#e5e5e5" d="M 430.5,71.5 C 429.949,74.8067 429.616,78.1401 429.5,81.5C 420.059,77.6441 420.392,74.3108 430.5,71.5 Z"/></g>
<g><path style="opacity:1" fill="#747474" d="M 156.5,78.5 C 157.167,79.1667 157.833,79.8333 158.5,80.5C 157.746,82.4459 156.412,83.2793 154.5,83C 156.037,81.8904 156.703,80.3904 156.5,78.5 Z"/></g>
<g><path style="opacity:1" fill="#1a1a1a" d="M 453.5,83.5 C 460.888,82.5153 465.555,85.5153 467.5,92.5C 468.873,92.3433 470.207,92.51 471.5,93C 469.316,95.0165 467.316,97.1831 465.5,99.5C 465.449,96.3349 465.282,93.0016 465,89.5C 463.289,86.4203 460.789,85.2536 457.5,86C 456.27,90.7692 457.103,95.2692 460,99.5C 461.036,110.132 456.536,113.632 446.5,110C 443.894,108.062 442.061,105.562 441,102.5C 439.795,101.929 438.628,101.262 437.5,100.5C 439.483,98.0163 441.65,95.6829 444,93.5C 443.421,95.3425 442.921,97.3425 442.5,99.5C 442.868,106.733 446.368,109.4 453,107.5C 453.667,105.5 453.667,103.5 453,101.5C 450.751,97.0368 449.751,92.3701 450,87.5C 451.032,85.9733 452.199,84.64 453.5,83.5 Z"/></g>
<g><path style="opacity:1" fill="#1b1b1b" d="M 106.5,90.5 C 105.5,89.8333 104.5,89.1667 103.5,88.5C 105.164,86.2433 107.331,84.5767 110,83.5C 117.083,85.2745 124.25,86.1078 131.5,86C 128.13,82.965 125.13,79.6317 122.5,76C 117.738,75.4348 117.738,73.9348 122.5,71.5C 127.518,79.6954 133.518,87.1954 140.5,94C 130.189,93.9552 120.023,92.7885 110,90.5C 109.333,91.1667 109.333,91.8333 110,92.5C 113.717,96.7616 117.55,100.928 121.5,105C 123.557,105.305 125.557,105.305 127.5,105C 124.37,107.128 121.537,109.628 119,112.5C 119.783,110.655 120.116,108.655 120,106.5C 115.289,101.294 110.789,95.9605 106.5,90.5 Z"/></g>
<g><path style="opacity:1" fill="#5b5b5b" d="M 103.5,88.5 C 104.5,89.1667 105.5,89.8333 106.5,90.5C 104.533,90.2606 102.699,90.5939 101,91.5C 100.804,89.8459 101.637,88.8459 103.5,88.5 Z"/></g>
<g><path style="opacity:1" fill="#f2f04e" d="M 160.5,88.5 C 160.489,90.0174 159.823,91.1841 158.5,92C 158.833,92.3333 159.167,92.6667 159.5,93C 158.167,93 156.833,93 155.5,93C 151.647,96.7455 147.647,100.246 143.5,103.5C 141.589,104.477 139.589,105.143 137.5,105.5C 144.317,98.6832 151.983,93.0166 160.5,88.5 Z"/></g>
<g><path style="opacity:1" fill="#101010" d="M 102.5,118.5 C 101.833,118.167 101.167,117.833 100.5,117.5C 98.1055,116.985 95.7722,116.319 93.5,115.5C 92.2946,114.314 90.9613,114.314 89.5,115.5C 88.2658,112.636 86.9325,109.803 85.5,107C 93.5741,108.35 101.574,110.35 109.5,113C 112.099,113.769 114.599,113.602 117,112.5C 115.593,115.945 113.259,118.945 110,121.5C 107.874,119.623 105.374,118.623 102.5,118.5 Z"/></g>
<g><path style="opacity:1" fill="#e8e8e8" d="M 93.5,115.5 C 95.7722,116.319 98.1055,116.985 100.5,117.5C 99.287,120.225 97.4536,122.559 95,124.5C 93.9305,121.792 92.7639,119.125 91.5,116.5C 91.9569,115.702 92.6236,115.369 93.5,115.5 Z"/></g>
<g><path style="opacity:1" fill="#2f2f2f" d="M 93.5,115.5 C 92.6236,115.369 91.9569,115.702 91.5,116.5C 92.7639,119.125 93.9305,121.792 95,124.5C 97.4536,122.559 99.287,120.225 100.5,117.5C 101.167,117.833 101.833,118.167 102.5,118.5C 100.106,120.891 98.1063,123.557 96.5,126.5C 96.7605,128.187 97.4272,129.687 98.5,131C 100.167,130.667 101.833,130.333 103.5,130C 100.955,132.376 98.6218,134.876 96.5,137.5C 96.58,134.715 96.08,131.715 95,128.5C 93.0632,124.183 91.2299,119.85 89.5,115.5C 90.9613,114.314 92.2946,114.314 93.5,115.5 Z"/></g>
<g><path style="opacity:1" fill="#131313" d="M 469.5,134.5 C 470.5,133.833 471.5,133.167 472.5,132.5C 475.284,130.782 477.617,128.616 479.5,126C 478.261,121.744 475.594,119.411 471.5,119C 470.122,120.713 468.455,122.047 466.5,123C 465.107,124.171 464.273,125.671 464,127.5C 461.833,124.667 459.667,121.833 457.5,119C 458.833,118.667 460.167,118.333 461.5,118C 467.092,113.62 472.592,109.12 478,104.5C 478.195,102.793 478.195,101.126 478,99.5C 481.806,103.504 484.806,107.837 487,112.5C 486.261,111.426 485.261,110.759 484,110.5C 480.738,111.935 477.904,113.935 475.5,116.5C 477.473,119.64 479.64,122.64 482,125.5C 485.667,123.167 488.667,120.167 491,116.5C 493.5,119.5 496,122.5 498.5,125.5C 498.333,125.833 498.167,126.167 498,126.5C 496.412,124.032 494.578,123.866 492.5,126C 488.12,130.048 483.454,133.715 478.5,137C 476.951,138.214 475.785,139.714 475,141.5C 473.334,139.004 471.5,136.671 469.5,134.5 Z"/></g>
<g><path style="opacity:1" fill="#888888" d="M 75.5,129.5 C 76.2891,129.783 76.9558,130.283 77.5,131C 75.1902,131.497 72.8568,131.663 70.5,131.5C 72.1667,130.833 73.8333,130.167 75.5,129.5 Z"/></g>
<g><path style="opacity:1" fill="#fbf984" d="M 120.5,121.5 C 118.234,125.436 115.234,128.769 111.5,131.5C 113.766,127.564 116.766,124.231 120.5,121.5 Z"/></g>
<g><path style="opacity:1" fill="#8f8f8f" d="M 472.5,132.5 C 471.5,133.167 470.5,133.833 469.5,134.5C 467.668,133.86 467.335,132.86 468.5,131.5C 469.736,132.246 471.07,132.579 472.5,132.5 Z"/></g>
<g><path style="opacity:1" fill="#161616" d="M 75.5,129.5 C 73.8333,130.167 72.1667,130.833 70.5,131.5C 65.3306,133.314 63.9973,136.481 66.5,141C 67.8333,141.667 69.1667,141.667 70.5,141C 74.4198,137.623 78.9198,135.457 84,134.5C 87.2738,134.301 89.6071,135.634 91,138.5C 91.6667,141.5 91.6667,144.5 91,147.5C 88.2877,151.037 85.4544,154.37 82.5,157.5C 80.1667,156 77.8333,154.5 75.5,153C 79.2498,152.74 82.9164,152.073 86.5,151C 89.3468,148.429 90.0135,145.429 88.5,142C 86.5,141.333 84.5,141.333 82.5,142C 78.7447,144.795 74.578,146.628 70,147.5C 63.9198,146.358 61.5864,142.691 63,136.5C 65.7005,133.302 68.2005,129.969 70.5,126.5C 72.0287,127.763 73.6954,128.763 75.5,129.5 Z"/></g>
<g><path style="opacity:1" fill="#0f0f0f" d="M 486.5,154.5 C 485.833,155.167 485.167,155.833 484.5,156.5C 483.431,154.031 482.098,151.698 480.5,149.5C 481.167,148.833 481.833,148.167 482.5,147.5C 488.806,143.678 495.139,139.845 501.5,136C 502.191,134.933 502.691,133.766 503,132.5C 505.207,135.078 507.04,137.911 508.5,141C 500.634,144.76 493.301,149.26 486.5,154.5 Z"/></g>
<g><path style="opacity:1" fill="#157d1b" d="M 126.5,136.5 C 125.154,138.537 123.82,140.537 122.5,142.5C 122.565,142.062 122.399,141.728 122,141.5C 118.743,145.128 117.243,149.128 117.5,153.5C 111.846,165.131 107.179,177.131 103.5,189.5C 103.565,189.062 103.399,188.728 103,188.5C 100.448,196.326 98.6146,204.326 97.5,212.5C 97.5108,214.045 97.8442,215.378 98.5,216.5C 98.7373,217.791 98.404,218.791 97.5,219.5C 90.698,266.214 98.8646,310.881 122,353.5C 122.464,352.906 122.631,352.239 122.5,351.5C 123.401,352.29 124.068,353.29 124.5,354.5C 123.957,354.56 123.624,354.893 123.5,355.5C 146.34,396.016 179.34,424.683 222.5,441.5C 223.107,441.376 223.44,441.043 223.5,440.5C 225.153,440.66 226.486,441.326 227.5,442.5C 227.062,442.435 226.728,442.601 226.5,443C 234.991,446.798 243.658,448.632 252.5,448.5C 279.803,453.247 306.803,451.914 333.5,444.5C 334.601,445.598 335.934,445.765 337.5,445C 350.579,440.867 362.912,435.2 374.5,428C 374.272,427.601 373.938,427.435 373.5,427.5C 376.566,425.11 379.9,423.11 383.5,421.5C 383.897,422.525 384.563,422.692 385.5,422C 414.183,402.158 436.183,376.658 451.5,345.5C 451.03,344.537 450.363,344.537 449.5,345.5C 453.703,337.33 457.37,328.997 460.5,320.5C 460.721,323.097 461.221,323.097 462,320.5C 463.167,317 464.333,313.5 465.5,310C 465.43,309.235 465.097,308.735 464.5,308.5C 467.886,293.818 470.552,279.152 472.5,264.5C 472.337,266.857 472.503,269.19 473,271.5C 475.405,250.394 474.739,229.394 471,208.5C 470.51,209.793 470.343,211.127 470.5,212.5C 469.437,208.361 468.77,204.028 468.5,199.5C 467.602,191.633 465.768,183.966 463,176.5C 462.617,175.944 462.117,175.611 461.5,175.5C 459.928,172.785 458.928,169.785 458.5,166.5C 456.869,160.402 454.536,154.568 451.5,149C 452.025,148.308 452.692,147.808 453.5,147.5C 459.98,155.111 465.48,163.444 470,172.5C 470.464,171.906 470.631,171.239 470.5,170.5C 471.401,171.29 472.068,172.29 472.5,173.5C 471.427,174.251 471.26,175.251 472,176.5C 478.176,188.364 483.176,200.697 487,213.5C 487.464,212.906 487.631,212.239 487.5,211.5C 490.261,219.549 492.261,227.882 493.5,236.5C 492.853,237.274 492.52,238.274 492.5,239.5C 497.587,273.531 495.254,307.031 485.5,340C 485.57,340.765 485.903,341.265 486.5,341.5C 484.675,346.986 482.675,352.319 480.5,357.5C 480.19,356.262 479.69,356.262 479,357.5C 473.741,371.353 466.907,384.353 458.5,396.5C 458.624,397.107 458.957,397.44 459.5,397.5C 456.397,402.052 453.064,406.386 449.5,410.5C 448.671,409.668 447.838,410.001 447,411.5C 438.508,422.325 429.008,432.158 418.5,441C 418.728,441.399 419.062,441.565 419.5,441.5C 411.896,447.975 403.896,453.975 395.5,459.5C 395.44,458.957 395.107,458.624 394.5,458.5C 382.843,465.171 371.51,471.171 360.5,476.5C 342.25,483.812 323.25,488.479 303.5,490.5C 280.372,490.838 257.372,488.505 234.5,483.5C 233.584,483.543 232.917,483.876 232.5,484.5C 227.824,483.939 223.491,482.606 219.5,480.5C 214.267,477.562 208.601,475.062 202.5,473C 196.009,469.922 189.675,466.588 183.5,463C 182.251,462.26 181.251,462.427 180.5,463.5C 175.291,460.402 170.291,457.068 165.5,453.5C 149.846,440.691 135.012,426.357 121,410.5C 120.601,410.728 120.435,411.062 120.5,411.5C 119.094,411.027 118.427,410.027 118.5,408.5C 112.918,399.069 107.085,389.735 101,380.5C 100.31,379.262 99.81,379.262 99.5,380.5C 95.2772,372.384 91.2772,364.051 87.5,355.5C 88.0967,355.265 88.4301,354.765 88.5,354C 85.9964,346.489 83.4964,338.989 81,331.5C 80.6012,331.728 80.4346,332.062 80.5,332.5C 79.6618,332.158 79.3284,331.492 79.5,330.5C 80.1239,330.083 80.4573,329.416 80.5,328.5C 78.8388,321.523 77.3388,314.523 76,307.5C 75.5357,308.094 75.369,308.761 75.5,309.5C 74.596,308.791 74.2627,307.791 74.5,306.5C 75.1558,305.378 75.4892,304.045 75.5,302.5C 74.4613,290.015 73.4613,277.682 72.5,265.5C 72.8003,249.723 75.1336,234.389 79.5,219.5C 79.6932,223.449 80.1932,223.449 81,219.5C 83.2983,211.605 85.7983,203.772 88.5,196C 88.4301,195.235 88.0967,194.735 87.5,194.5C 87.3284,193.508 87.6618,192.842 88.5,192.5C 88.81,193.738 89.31,193.738 90,192.5C 96.462,176.711 104.629,161.877 114.5,148C 114.272,147.601 113.938,147.435 113.5,147.5C 113.328,146.508 113.662,145.842 114.5,145.5C 114.435,145.938 114.601,146.272 115,146.5C 118.333,142.5 121.667,138.5 125,134.5C 125.278,135.416 125.778,136.082 126.5,136.5 Z"/></g>
<g><path style="opacity:1" fill="#e9e329" d="M 137.5,105.5 C 136.847,106.807 136.18,108.14 135.5,109.5C 138.829,110.426 141.663,109.426 144,106.5C 144.717,107.044 145.217,107.711 145.5,108.5C 129.33,122.166 115.496,137.833 104,155.5C 101.628,158.91 99.7951,162.577 98.5,166.5C 97.8333,166.833 97.1667,167.167 96.5,167.5C 96.6309,166.624 96.2975,165.957 95.5,165.5C 94.2798,166.711 93.1131,166.711 92,165.5C 91.0853,166.328 90.4186,167.328 90,168.5C 89.6667,167.833 89.3333,167.167 89,166.5C 86.4459,169.36 84.7793,172.693 84,176.5C 83.2411,178.063 82.0744,179.063 80.5,179.5C 80.9954,177.518 81.4954,175.518 82,173.5C 89.7794,157.915 99.6127,143.915 111.5,131.5C 115.234,128.769 118.234,125.436 120.5,121.5C 125.584,115.413 131.25,110.079 137.5,105.5 Z"/></g>
<g><path style="opacity:1" fill="#6a6a6a" d="M 482.5,147.5 C 481.833,148.167 481.167,148.833 480.5,149.5C 476.401,145.2 477.068,144.534 482.5,147.5 Z"/></g>
<g><path style="opacity:1" fill="#121212" d="M 513.5,150.5 C 516.415,153.663 518.248,157.33 519,161.5C 517.274,160.424 515.441,160.257 513.5,161C 507.5,164 501.5,167 495.5,170C 494.874,170.75 494.374,171.584 494,172.5C 491.981,168.809 490.314,165.142 489,161.5C 490.133,163.211 491.633,163.711 493.5,163C 499.991,159.922 506.325,156.588 512.5,153C 513.252,152.329 513.586,151.496 513.5,150.5 Z"/></g>
<g><path style="opacity:1" fill="#878787" d="M 486.5,154.5 C 486.421,155.93 486.754,157.264 487.5,158.5C 485.917,159.312 484.917,158.645 484.5,156.5C 485.167,155.833 485.833,155.167 486.5,154.5 Z"/></g>
<g><path style="opacity:1" fill="#181818" d="M 67.5,170.5 C 63.4028,168.218 59.0694,167.884 54.5,169.5C 52.364,167.188 50.364,164.688 48.5,162C 59.1823,161.168 69.8489,161.334 80.5,162.5C 79.2533,165.329 77.7533,167.995 76,170.5C 73.0635,169.183 70.2301,169.183 67.5,170.5 Z"/></g>
<g><path style="opacity:1" fill="#131906" d="M 114.5,166.5 C 111.342,172.456 108.842,178.79 107,185.5C 102.689,199.181 100.189,213.181 99.5,227.5C 98.5048,239.655 98.1714,251.989 98.5,264.5C 98.7678,266.099 98.4345,267.432 97.5,268.5C 96.2382,252.177 96.2382,235.844 97.5,219.5C 98.404,218.791 98.7373,217.791 98.5,216.5C 99.5258,207.372 101.192,198.372 103.5,189.5C 107.179,177.131 111.846,165.131 117.5,153.5C 118.895,149.71 120.562,146.043 122.5,142.5C 123.82,140.537 125.154,138.537 126.5,136.5C 128.584,132.664 130.917,128.997 133.5,125.5C 134.97,123.849 136.303,122.015 137.5,120C 135.259,119.876 133.926,121.042 133.5,123.5C 126.448,130.218 120.115,137.551 114.5,145.5C 113.662,145.842 113.328,146.508 113.5,147.5C 108.102,153.947 103.436,160.947 99.5,168.5C 98.6618,168.158 98.3284,167.492 98.5,166.5C 99.7951,162.577 101.628,158.91 104,155.5C 115.496,137.833 129.33,122.166 145.5,108.5C 146.423,107.697 147.423,107.53 148.5,108C 134.745,125.998 123.412,145.498 114.5,166.5 Z"/></g>
<g><path style="opacity:1" fill="#23b021" d="M 122.5,142.5 C 120.562,146.043 118.895,149.71 117.5,153.5C 117.243,149.128 118.743,145.128 122,141.5C 122.399,141.728 122.565,142.062 122.5,142.5 Z"/></g>
<g><path style="opacity:1" fill="#21a722" d="M 133.5,123.5 C 133.5,124.167 133.5,124.833 133.5,125.5C 130.917,128.997 128.584,132.664 126.5,136.5C 125.778,136.082 125.278,135.416 125,134.5C 121.667,138.5 118.333,142.5 115,146.5C 114.601,146.272 114.435,145.938 114.5,145.5C 120.115,137.551 126.448,130.218 133.5,123.5 Z"/></g>
<g><path style="opacity:1" fill="#2c692f" d="M 133.5,125.5 C 133.5,124.833 133.5,124.167 133.5,123.5C 133.926,121.042 135.259,119.876 137.5,120C 136.303,122.015 134.97,123.849 133.5,125.5 Z"/></g>
<g><path style="opacity:1" fill="#1f9f1e" d="M 113.5,147.5 C 113.938,147.435 114.272,147.601 114.5,148C 104.629,161.877 96.462,176.711 90,192.5C 89.31,193.738 88.81,193.738 88.5,192.5C 91.6155,184.268 95.2822,176.268 99.5,168.5C 103.436,160.947 108.102,153.947 113.5,147.5 Z"/></g>
<g><path style="opacity:1" fill="#373737" d="M 67.5,170.5 C 66.1799,173.14 64.8466,175.807 63.5,178.5C 64.0402,179.748 64.7069,180.915 65.5,182C 67.6886,182.209 69.6886,181.875 71.5,181C 70.1258,183.583 68.6258,186.083 67,188.5C 63.4273,181.764 59.2606,175.43 54.5,169.5C 59.0694,167.884 63.4028,168.218 67.5,170.5 Z"/></g>
<g><path style="opacity:1" fill="#f3f3f3" d="M 57.5,169.5 C 65.8742,168.203 67.3742,170.537 62,176.5C 59.4807,174.789 57.9807,172.455 57.5,169.5 Z"/></g>
<g><path style="opacity:1" fill="#141414" d="M 522.5,166.5 C 527.522,174.404 530.022,183.071 530,192.5C 525.667,197.833 521.333,197.833 517,192.5C 513.535,197.097 510.869,202.097 509,207.5C 507.833,204.667 506.667,201.833 505.5,199C 508.333,193.832 511,188.665 513.5,183.5C 510.353,183.737 507.353,184.57 504.5,186C 503.107,187.171 502.273,188.671 502,190.5C 500.262,185.724 498.595,181.057 497,176.5C 499.2,179.94 502.033,180.44 505.5,178C 510.793,175.736 516.127,173.569 521.5,171.5C 522.452,169.955 522.785,168.288 522.5,166.5 Z"/></g>
<g><path style="opacity:1" fill="#ededed" d="M 522.5,178.5 C 527.152,179.104 528.652,181.77 527,186.5C 520.888,191.375 516.721,190.042 514.5,182.5C 517.25,181.125 519.916,179.792 522.5,178.5 Z"/></g>
<g><path style="opacity:1" fill="#192108" d="M 307.5,241.5 C 307.238,242.978 307.571,244.311 308.5,245.5C 309.107,245.376 309.44,245.043 309.5,244.5C 321.669,224.831 337.669,208.998 357.5,197C 372.688,189.857 388.688,186.69 405.5,187.5C 408.253,196.087 410.587,204.754 412.5,213.5C 375.211,213.529 344.044,227.196 319,254.5C 315.667,259.167 312.333,263.833 309,268.5C 308.501,272.821 308.334,277.154 308.5,281.5C 307.185,286.68 307.185,292.014 308.5,297.5C 309.107,297.376 309.44,297.043 309.5,296.5C 321.461,283.369 334.795,271.869 349.5,262C 357.187,257.883 365.187,254.55 373.5,252C 386.391,248.589 399.391,245.755 412.5,243.5C 414.95,243.298 417.283,243.631 419.5,244.5C 429.178,273.535 437.845,302.868 445.5,332.5C 416.053,336.556 387.053,342.723 358.5,351C 342.323,359.499 328.156,370.665 316,384.5C 305.542,396.444 295.709,408.778 286.5,421.5C 286.5,420.833 286.167,420.5 285.5,420.5C 285.5,420.167 285.5,419.833 285.5,419.5C 286.6,418.395 287.267,417.062 287.5,415.5C 291.18,411.817 294.514,407.817 297.5,403.5C 302.167,397.833 306.833,392.167 311.5,386.5C 313.262,385.738 314.262,384.404 314.5,382.5C 321.867,375.131 329.534,368.131 337.5,361.5C 338.5,361.167 339.167,360.5 339.5,359.5C 348.45,352.693 358.45,348.026 369.5,345.5C 382.273,342.335 394.939,339.335 407.5,336.5C 418.131,334.617 428.798,332.95 439.5,331.5C 441.09,331.372 442.423,330.705 443.5,329.5C 434.954,301.409 426.287,273.409 417.5,245.5C 406.327,246.572 395.327,248.572 384.5,251.5C 375.459,253.735 366.792,256.735 358.5,260.5C 352.484,263.009 346.818,266.176 341.5,270C 328.854,279.314 317.521,289.98 307.5,302C 306.563,302.692 305.897,302.525 305.5,301.5C 305.5,299.5 305.5,297.5 305.5,295.5C 305.46,286.472 305.96,277.472 307,268.5C 308.094,266.922 308.928,265.255 309.5,263.5C 318.184,251.818 328.184,241.484 339.5,232.5C 359.642,219.959 381.642,212.959 405.5,211.5C 406.833,211.5 408.167,211.5 409.5,211.5C 407.526,204.269 405.86,196.936 404.5,189.5C 388.195,188.948 372.862,192.282 358.5,199.5C 344.759,206.233 333.426,215.9 324.5,228.5C 323.5,228.833 322.833,229.5 322.5,230.5C 318.191,236.482 313.858,242.482 309.5,248.5C 308.386,249.776 307.386,249.776 306.5,248.5C 306.784,246.585 306.451,244.919 305.5,243.5C 304.447,237.525 303.947,231.525 304,225.5C 307.002,221.666 310.169,218 313.5,214.5C 318.167,209.5 322.833,204.5 327.5,199.5C 334.997,193.587 342.664,187.92 350.5,182.5C 358.279,179.24 366.279,176.574 374.5,174.5C 381.231,172.48 388.064,171.146 395,170.5C 394.253,162.407 392.753,154.407 390.5,146.5C 369.999,150.168 350.999,157.668 333.5,169C 318.186,181.826 305.852,196.993 296.5,214.5C 295.957,215.742 295.623,217.075 295.5,218.5C 301.896,241.386 304.23,264.719 302.5,288.5C 298.804,316.67 293.804,344.67 287.5,372.5C 286.596,371.791 286.263,370.791 286.5,369.5C 291.657,345.714 295.657,321.714 298.5,297.5C 300.022,290.061 300.689,282.394 300.5,274.5C 300.499,268.989 300.166,263.656 299.5,258.5C 299.452,251.803 298.952,245.136 298,238.5C 296.317,230.743 294.65,223.076 293,215.5C 302.445,199.13 313.945,184.297 327.5,171C 346.961,156.856 368.461,148.022 392,144.5C 394.281,153.835 396.448,163.168 398.5,172.5C 375.57,173.975 354.903,181.475 336.5,195C 325.298,204.535 315.131,215.035 306,226.5C 306.422,231.464 306.922,236.464 307.5,241.5 Z"/></g>
<g><path style="opacity:1" fill="#16801b" d="M 374.5,174.5 C 365.81,174.508 357.81,177.174 350.5,182.5C 341.353,186.334 333.687,192 327.5,199.5C 322.833,204.5 318.167,209.5 313.5,214.5C 309.179,216.97 305.346,220.637 302,225.5C 301.667,227.833 301.333,230.167 301,232.5C 298.798,226.36 297.298,220.36 296.5,214.5C 305.852,196.993 318.186,181.826 333.5,169C 350.999,157.668 369.999,150.168 390.5,146.5C 392.753,154.407 394.253,162.407 395,170.5C 388.064,171.146 381.231,172.48 374.5,174.5 Z"/></g>
<g><path style="opacity:1" fill="#fbfdb2" d="M 76.5,186.5 C 76.2451,188.967 75.2451,190.967 73.5,192.5C 73.7549,190.033 74.7549,188.033 76.5,186.5 Z"/></g>
<g><path style="opacity:1" fill="#161616" d="M 40.5,178.5 C 44.0595,184.074 48.0595,189.407 52.5,194.5C 55.8878,196.518 59.5545,197.518 63.5,197.5C 63.1353,200.625 62.302,203.625 61,206.5C 57.7497,204.64 54.2497,203.307 50.5,202.5C 43.4314,203.702 36.7648,205.535 30.5,208C 31.9953,204.183 33.4953,200.35 35,196.5C 35.5194,197.516 36.3527,198.182 37.5,198.5C 41.9381,197.415 46.2714,196.082 50.5,194.5C 47.9522,191.241 45.2855,188.074 42.5,185C 41.0039,184.493 39.8373,184.993 39,186.5C 38.9552,183.78 39.4552,181.114 40.5,178.5 Z"/></g>
<g><path style="opacity:1" fill="#192208" d="M 280.5,372.5 C 280.433,373.959 280.766,375.292 281.5,376.5C 280.596,377.209 280.263,378.209 280.5,379.5C 279.288,376.22 278.288,372.887 277.5,369.5C 276.296,362.812 274.962,356.146 273.5,349.5C 270.485,332.076 267.485,314.742 264.5,297.5C 262.434,274.344 263.434,251.344 267.5,228.5C 268.669,225.659 269.669,222.659 270.5,219.5C 271.573,218.749 271.74,217.749 271,216.5C 261.095,198.926 248.595,183.426 233.5,170C 229.213,166.691 224.547,164.191 219.5,162.5C 218.713,160.896 217.38,160.229 215.5,160.5C 209.33,156.881 202.663,154.214 195.5,152.5C 189.201,149.588 182.535,147.588 175.5,146.5C 173.211,154.703 171.544,163.036 170.5,171.5C 174.5,171.833 178.5,172.167 182.5,172.5C 204.436,176.135 223.436,185.635 239.5,201C 247,209.167 254.5,217.333 262,225.5C 262.497,227.81 262.663,230.143 262.5,232.5C 261.596,233.209 261.263,234.209 261.5,235.5C 260.833,240.167 260.167,244.833 259.5,249.5C 257.09,249.079 255.257,247.746 254,245.5C 244.906,229.958 233.073,216.958 218.5,206.5C 201.508,194.618 182.508,188.952 161.5,189.5C 160.833,192.833 160.167,196.167 159.5,199.5C 158.09,203.397 157.09,207.397 156.5,211.5C 161.152,211.998 165.819,212.331 170.5,212.5C 196.892,216.196 220.225,226.696 240.5,244C 247.077,251.732 253.41,259.565 259.5,267.5C 259.916,277.497 260.25,287.497 260.5,297.5C 260.843,299.483 260.176,300.817 258.5,301.5C 254.061,297.226 249.728,292.726 245.5,288C 239.251,281.91 232.584,276.41 225.5,271.5C 225.5,270.833 225.167,270.5 224.5,270.5C 217.202,264.35 208.869,260.016 199.5,257.5C 199.5,256.833 199.167,256.5 198.5,256.5C 190.358,253.715 182.025,251.715 173.5,250.5C 168.429,248.565 163.095,247.232 157.5,246.5C 154.475,246.123 151.475,245.956 148.5,246C 147.62,247.356 147.286,248.856 147.5,250.5C 138.387,277.112 130.053,304.112 122.5,331.5C 124.167,331.5 125.833,331.5 127.5,331.5C 137.753,333.631 148.086,335.298 158.5,336.5C 171.621,340.142 184.954,343.309 198.5,346C 203.057,347.05 207.391,348.55 211.5,350.5C 226.276,359.267 239.609,369.933 251.5,382.5C 258.464,391.466 265.798,400.132 273.5,408.5C 274.759,412.025 276.759,415.025 279.5,417.5C 279.833,418.167 280.167,418.833 280.5,419.5C 280.5,419.833 280.5,420.167 280.5,420.5C 280.167,420.5 279.833,420.5 279.5,420.5C 264.528,400.019 247.528,381.185 228.5,364C 215.952,353.81 201.618,347.477 185.5,345C 163.7,340.44 141.867,336.273 120,332.5C 128.512,302.459 137.345,272.459 146.5,242.5C 168.529,245.337 189.862,250.837 210.5,259C 228.373,269.03 244.04,281.863 257.5,297.5C 257.833,296.5 258.167,295.5 258.5,294.5C 257.754,285.853 257.254,277.187 257,268.5C 240.326,242.237 216.826,225.404 186.5,218C 175.585,215.798 164.585,214.298 153.5,213.5C 155.197,205.046 157.364,196.712 160,188.5C 164.401,187.533 168.901,187.2 173.5,187.5C 176.974,188.525 180.64,189.192 184.5,189.5C 207.259,194.297 226.092,205.63 241,223.5C 246.167,230.5 251.333,237.5 256.5,244.5C 257.086,244.291 257.586,243.957 258,243.5C 259.168,237.849 259.835,232.182 260,226.5C 249.833,213.667 238.333,202.167 225.5,192C 207.828,180.669 188.495,174.169 167.5,172.5C 169.503,163.163 171.503,153.83 173.5,144.5C 195.47,148.319 215.803,156.153 234.5,168C 249.926,181.756 262.759,197.59 273,215.5C 264.27,249.167 263.27,283.167 270,317.5C 273.055,335.94 276.555,354.273 280.5,372.5 Z"/></g>
<g><path style="opacity:1" fill="#157f1b" d="M 195.5,152.5 C 195.611,153.117 195.944,153.617 196.5,154C 202.865,156.188 209.198,158.354 215.5,160.5C 217.38,160.229 218.713,160.896 219.5,162.5C 227.559,167.296 235.059,172.962 242,179.5C 252.945,191.923 262.445,205.256 270.5,219.5C 269.669,222.659 268.669,225.659 267.5,228.5C 267.565,228.062 267.399,227.728 267,227.5C 263.49,243.947 261.49,260.613 261,277.5C 260.821,273.975 260.321,270.641 259.5,267.5C 253.41,259.565 247.077,251.732 240.5,244C 220.225,226.696 196.892,216.196 170.5,212.5C 170.938,212.565 171.272,212.399 171.5,212C 167.564,210.913 163.564,210.08 159.5,209.5C 159.761,206.108 159.761,202.775 159.5,199.5C 160.167,196.167 160.833,192.833 161.5,189.5C 182.508,188.952 201.508,194.618 218.5,206.5C 232.762,219.27 245.095,233.77 255.5,250C 257.578,252.134 259.412,251.968 261,249.5C 261.5,246 262,242.5 262.5,239C 262.486,237.615 262.152,236.449 261.5,235.5C 261.263,234.209 261.596,233.209 262.5,232.5C 262.369,233.239 262.536,233.906 263,234.5C 263.339,231.964 263.839,229.464 264.5,227C 251.077,208.578 234.744,193.244 215.5,181C 205.713,176.627 195.546,173.46 185,171.5C 183.93,171.528 183.097,171.861 182.5,172.5C 178.5,172.167 174.5,171.833 170.5,171.5C 171.544,163.036 173.211,154.703 175.5,146.5C 182.535,147.588 189.201,149.588 195.5,152.5 Z"/></g>
<g><path style="opacity:1" fill="#20a321" d="M 219.5,162.5 C 224.547,164.191 229.213,166.691 233.5,170C 248.595,183.426 261.095,198.926 271,216.5C 271.74,217.749 271.573,218.749 270.5,219.5C 262.445,205.256 252.945,191.923 242,179.5C 235.059,172.962 227.559,167.296 219.5,162.5 Z"/></g>
<g><path style="opacity:1" fill="#1da021" d="M 195.5,152.5 C 202.663,154.214 209.33,156.881 215.5,160.5C 209.198,158.354 202.865,156.188 196.5,154C 195.944,153.617 195.611,153.117 195.5,152.5 Z"/></g>
<g><path style="opacity:1" fill="#151515" d="M 509.5,208.5 C 510.627,209.122 511.627,209.955 512.5,211C 521.908,213.019 531.241,215.352 540.5,218C 534.167,223 527.833,228 521.5,233C 519.19,234.637 517.69,236.804 517,239.5C 514.942,233.99 514.109,230.324 514.5,228.5C 516.903,228.607 518.736,227.607 520,225.5C 520.439,221.789 520.106,218.122 519,214.5C 516.043,212.923 513.376,213.256 511,215.5C 510.338,213.187 509.838,210.854 509.5,208.5 Z"/></g>
<g><path style="opacity:1" fill="#e0e0e0" d="M 520.5,214.5 C 531.926,214.72 532.926,217.386 523.5,222.5C 521.599,220.272 520.599,217.605 520.5,214.5 Z"/></g>
<g><path style="opacity:1" fill="#101010" d="M 56.5,222.5 C 55.8333,223.5 55.1667,224.5 54.5,225.5C 52.0504,225.298 49.717,225.631 47.5,226.5C 46.209,226.263 45.209,226.596 44.5,227.5C 41.5,228.167 38.5,228.833 35.5,229.5C 34.8333,229.833 34.1667,230.167 33.5,230.5C 31.6075,229.298 29.7742,227.965 28,226.5C 27.5439,225.256 28.0439,224.423 29.5,224C 37.1236,221.844 44.7903,219.844 52.5,218C 54.492,217.426 55.992,216.259 57,214.5C 57.1747,217.157 57.0081,219.824 56.5,222.5 Z"/></g>
<g><path style="opacity:1" fill="#fdfcaa" d="M 504.5,219.5 C 506.04,221.838 506.706,224.505 506.5,227.5C 505.232,225.095 504.565,222.428 504.5,219.5 Z"/></g>
<g><path style="opacity:1" fill="#626261" d="M 56.5,222.5 C 56.477,224.927 55.977,227.26 55,229.5C 54.51,228.207 54.3433,226.873 54.5,225.5C 55.1667,224.5 55.8333,223.5 56.5,222.5 Z"/></g>
<g><path style="opacity:1" fill="#eaeaea" d="M 44.5,227.5 C 45.0967,227.735 45.4301,228.235 45.5,229C 45.0216,231.226 44.355,233.392 43.5,235.5C 40.5079,233.829 37.8413,231.829 35.5,229.5C 38.5,228.833 41.5,228.167 44.5,227.5 Z"/></g>
<g><path style="opacity:1" fill="#fdfcb9" d="M 64.5,219.5 C 64.2367,224.124 63.2367,228.458 61.5,232.5C 61.5508,227.813 62.5508,223.479 64.5,219.5 Z"/></g>
<g><path style="opacity:1" fill="#2b2b2b" d="M 44.5,227.5 C 45.209,226.596 46.209,226.263 47.5,226.5C 46.7901,229.618 46.1234,232.785 45.5,236C 46.3561,238.354 48.0228,239.854 50.5,240.5C 51.7989,239.91 52.6322,238.91 53,237.5C 53.0068,240.479 52.6735,243.479 52,246.5C 50.5422,244.04 48.7089,241.873 46.5,240C 41.9845,236.97 37.6512,233.803 33.5,230.5C 34.1667,230.167 34.8333,229.833 35.5,229.5C 37.8413,231.829 40.5079,233.829 43.5,235.5C 44.355,233.392 45.0216,231.226 45.5,229C 45.4301,228.235 45.0967,227.735 44.5,227.5 Z"/></g>
<g><path style="opacity:1" fill="#fdfdac" d="M 507.5,232.5 C 509.217,235.845 509.884,239.511 509.5,243.5C 508.475,240.026 507.808,236.36 507.5,232.5 Z"/></g>
<g><path style="opacity:1" fill="#fafb96" d="M 61.5,232.5 C 61.7204,237.1 61.0538,241.433 59.5,245.5C 59.1561,240.878 59.8227,236.545 61.5,232.5 Z"/></g>
<g><path style="opacity:1" fill="#626262" d="M 545.5,245.5 C 546.641,248.64 546.808,251.973 546,255.5C 545.59,254.099 545.09,252.766 544.5,251.5C 545.461,249.735 545.795,247.735 545.5,245.5 Z"/></g>
<g><path style="opacity:1" fill="#171717" d="M 49.5,255.5 C 50.4511,256.919 50.7845,258.585 50.5,260.5C 50.6641,263.187 50.4974,265.854 50,268.5C 49.7266,266.899 49.2266,265.399 48.5,264C 44.8333,263.333 41.1667,263.333 37.5,264C 32.8333,266.333 28.1667,268.667 23.5,271C 22.8742,271.75 22.3742,272.584 22,273.5C 21.3418,269.428 21.6752,265.428 23,261.5C 24.0495,262.517 25.2161,262.684 26.5,262C 30.0066,259.746 33.6733,257.746 37.5,256C 34.1667,253.333 30.8333,250.667 27.5,248C 26.2161,247.316 25.0495,247.483 24,248.5C 23.3333,246.167 23.3333,243.833 24,241.5C 28.48,246.311 33.3133,250.811 38.5,255C 42.1516,255.499 45.8183,255.665 49.5,255.5 Z"/></g>
<g><path style="opacity:1" fill="#8a8a8a" d="M 517.5,250.5 C 518.167,251.833 518.833,253.167 519.5,254.5C 519.719,255.675 519.386,256.675 518.5,257.5C 517.526,255.257 517.192,252.924 517.5,250.5 Z"/></g>
<g><path style="opacity:1" fill="#fcfcac" d="M 59.5,245.5 C 59.7204,250.1 59.0538,254.433 57.5,258.5C 57.1561,253.878 57.8227,249.545 59.5,245.5 Z"/></g>
<g><path style="opacity:1" fill="#818181" d="M 50.5,260.5 C 50.7845,258.585 50.4511,256.919 49.5,255.5C 50.0899,254.234 50.5899,252.901 51,251.5C 51.8045,254.696 51.6378,257.696 50.5,260.5 Z"/></g>
<g><path style="opacity:1" fill="#919191" d="M 547.5,264.5 C 546.833,263.167 546.167,261.833 545.5,260.5C 545.281,259.325 545.614,258.325 546.5,257.5C 547.474,259.743 547.808,262.076 547.5,264.5 Z"/></g>
<g><path style="opacity:1" fill="#989898" d="M 531.5,254.5 C 532.477,257.287 532.81,260.287 532.5,263.5C 530.833,263.5 529.167,263.5 527.5,263.5C 528.568,262.566 529.901,262.232 531.5,262.5C 531.5,259.833 531.5,257.167 531.5,254.5 Z"/></g>
<g><path style="opacity:1" fill="#5f5f5f" d="M 520.5,263.5 C 519.549,264.919 519.216,266.585 519.5,268.5C 518.362,265.696 518.195,262.696 519,259.5C 519.41,260.901 519.91,262.234 520.5,263.5 Z"/></g>
<g><path style="opacity:1" fill="#0d0d0d" d="M 545.5,245.5 C 545.795,247.735 545.461,249.735 544.5,251.5C 540.833,251.5 537.167,251.5 533.5,251.5C 533.5,255.167 533.5,258.833 533.5,262.5C 537.182,262.665 540.848,262.499 544.5,262C 545.056,261.617 545.389,261.117 545.5,260.5C 546.167,261.833 546.833,263.167 547.5,264.5C 547.663,266.857 547.497,269.19 547,271.5C 545.352,269.972 543.352,269.305 541,269.5C 534.844,270.118 528.677,270.618 522.5,271C 521.033,272.098 520.199,273.598 520,275.5C 519.503,273.19 519.337,270.857 519.5,268.5C 519.216,266.585 519.549,264.919 520.5,263.5C 522.833,263.5 525.167,263.5 527.5,263.5C 529.167,263.5 530.833,263.5 532.5,263.5C 532.81,260.287 532.477,257.287 531.5,254.5C 529.952,253.206 527.952,252.539 525.5,252.5C 523.048,252.539 521.048,253.206 519.5,254.5C 518.833,253.167 518.167,251.833 517.5,250.5C 517.338,248.473 517.505,246.473 518,244.5C 519.231,245.108 520.564,245.441 522,245.5C 529.494,244.706 536.994,244.039 544.5,243.5C 544.343,242.127 544.51,240.793 545,239.5C 545.495,241.473 545.662,243.473 545.5,245.5 Z"/></g>
<g><path style="opacity:1" fill="#337031" d="M 38.5,291.5 C 37.5416,291.047 36.7083,290.381 36,289.5C 35.2917,290.381 34.4584,291.047 33.5,291.5C 35.1667,286.167 36.8333,286.167 38.5,291.5 Z"/></g>
<g><path style="opacity:1" fill="#3a7638" d="M 535.5,291.5 C 534.295,289.862 532.962,289.529 531.5,290.5C 533.269,286.519 534.602,286.852 535.5,291.5 Z"/></g>
<g><path style="opacity:1" fill="#416a3c" d="M 33.5,291.5 C 34.2907,293.691 34.2907,295.691 33.5,297.5C 32.2918,298.782 30.9584,298.782 29.5,297.5C 28.8284,295.84 27.8284,294.507 26.5,293.5C 27.9305,293.421 29.2638,293.754 30.5,294.5C 31.735,293.66 32.735,292.66 33.5,291.5 Z"/></g>
<g><path style="opacity:1" fill="#476545" d="M 531.5,290.5 C 530.98,292.949 530.647,295.282 530.5,297.5C 529.5,294.833 528.5,294.833 527.5,297.5C 526.596,296.791 526.263,295.791 526.5,294.5C 528.573,293.7 530.24,292.367 531.5,290.5 Z"/></g>
<g><path style="opacity:1" fill="#3e6a3a" d="M 38.5,291.5 C 39.265,292.66 40.265,293.66 41.5,294.5C 44.0205,293.215 46.6872,292.548 49.5,292.5C 49.7678,294.099 49.4345,295.432 48.5,296.5C 48.719,295.325 48.3857,294.325 47.5,293.5C 45.0353,294.132 43.3686,295.632 42.5,298C 40.9343,298.765 39.6009,298.598 38.5,297.5C 37.596,296.791 37.2627,295.791 37.5,294.5C 38.404,293.791 38.7373,292.791 38.5,291.5 Z"/></g>
<g><path style="opacity:1" fill="#7f9a7c" d="M 25.5,293.5 C 23.744,294.552 23.0773,296.219 23.5,298.5C 22.5386,296.735 22.2053,294.735 22.5,292.5C 23.791,292.263 24.791,292.596 25.5,293.5 Z"/></g>
<g><path style="opacity:1" fill="#376f31" d="M 535.5,291.5 C 536.236,293.229 537.57,294.229 539.5,294.5C 539.5,295.833 539.5,297.167 539.5,298.5C 537.901,298.768 536.568,298.434 535.5,297.5C 533.289,296.077 532.455,294.077 533,291.5C 533.915,292.328 534.581,293.328 535,294.5C 535.483,293.552 535.649,292.552 535.5,291.5 Z"/></g>
<g><path style="opacity:1" fill="#18841d" d="M 37.5,294.5 C 37.2627,295.791 37.596,296.791 38.5,297.5C 39.6009,298.598 40.9343,298.765 42.5,298C 43.3686,295.632 45.0353,294.132 47.5,293.5C 48.3857,294.325 48.719,295.325 48.5,296.5C 48.5,296.833 48.5,297.167 48.5,297.5C 47.5,298.5 46.5,299.5 45.5,300.5C 45.5,301.5 45.5,302.5 45.5,303.5C 45.7352,304.097 46.2352,304.43 47,304.5C 48.0769,303.571 49.2436,302.904 50.5,302.5C 51.791,302.263 52.791,302.596 53.5,303.5C 54.4054,304.702 54.4054,306.036 53.5,307.5C 53.1667,307.5 52.8333,307.5 52.5,307.5C 50.5,307.5 48.5,307.5 46.5,307.5C 46.5,309.167 46.5,310.833 46.5,312.5C 47.8333,312.5 49.1667,312.5 50.5,312.5C 51.7255,313.937 52.7255,315.604 53.5,317.5C 50.9135,318.48 48.2469,318.813 45.5,318.5C 45.7148,316.821 45.0481,315.821 43.5,315.5C 44.463,314.637 44.463,313.97 43.5,313.5C 41.6769,314.491 40.1769,315.824 39,317.5C 36.7328,316.065 34.7328,316.398 33,318.5C 32.2061,315.169 30.0395,313.336 26.5,313C 27.7192,310.717 27.7192,308.384 26.5,306C 27.5812,304.629 28.4145,303.129 29,301.5C 31.0876,300.692 33.0876,299.692 35,298.5C 35.3333,296.167 35.6667,293.833 36,291.5C 37.0386,292.244 37.5386,293.244 37.5,294.5 Z"/></g>
<g><path style="opacity:1" fill="#d5dbd3" d="M 38.5,297.5 C 38.9483,295.535 39.9483,295.202 41.5,296.5C 40.675,297.386 39.675,297.719 38.5,297.5 Z"/></g>
<g><path style="opacity:1" fill="#19821d" d="M 543.5,307.5 C 543.5,307.833 543.5,308.167 543.5,308.5C 543.5,309.833 543.5,311.167 543.5,312.5C 544.833,312.5 546.167,312.5 547.5,312.5C 553.049,318.221 551.382,320.221 542.5,318.5C 542.5,317.5 542.5,316.5 542.5,315.5C 541.209,315.263 540.209,315.596 539.5,316.5C 538.903,316.735 538.57,317.235 538.5,318C 539.414,319.406 540.08,320.906 540.5,322.5C 540.384,328.646 538.717,328.979 535.5,323.5C 535.5,321.833 535.5,320.167 535.5,318.5C 534.041,318.433 532.708,318.766 531.5,319.5C 530.119,318.431 528.785,316.598 527.5,314C 525.942,313.79 524.609,313.29 523.5,312.5C 524.613,311.054 524.78,309.387 524,307.5C 521.389,306.929 518.889,306.096 516.5,305C 518.058,304.79 519.391,304.29 520.5,303.5C 520.833,303.5 521.167,303.5 521.5,303.5C 522.167,303.5 522.833,303.5 523.5,303.5C 523.833,303.5 524.167,303.5 524.5,303.5C 524.81,304.738 525.31,304.738 526,303.5C 526.49,302.207 526.657,300.873 526.5,299.5C 529.044,299.896 531.211,299.229 533,297.5C 534.798,299.837 536.965,300.503 539.5,299.5C 540.23,301.341 540.897,303.175 541.5,305C 544.2,305.253 546.867,305.253 549.5,305C 547.498,306.019 545.498,306.852 543.5,307.5 Z"/></g>
<g><path style="opacity:1" fill="#22a623" d="M 535.5,291.5 C 535.649,292.552 535.483,293.552 535,294.5C 534.581,293.328 533.915,292.328 533,291.5C 532.455,294.077 533.289,296.077 535.5,297.5C 536.568,298.434 537.901,298.768 539.5,298.5C 539.5,297.167 539.5,295.833 539.5,294.5C 540.391,293.89 541.391,293.557 542.5,293.5C 543.5,293.5 544.5,293.5 545.5,293.5C 544.824,297.22 543.657,300.554 542,303.5C 544.814,303.205 547.647,303.205 550.5,303.5C 551.706,304.88 551.373,306.047 549.5,307C 547.527,307.495 545.527,307.662 543.5,307.5C 545.498,306.852 547.498,306.019 549.5,305C 546.867,305.253 544.2,305.253 541.5,305C 540.897,303.175 540.23,301.341 539.5,299.5C 536.965,300.503 534.798,299.837 533,297.5C 531.211,299.229 529.044,299.896 526.5,299.5C 526.657,300.873 526.49,302.207 526,303.5C 525.31,304.738 524.81,304.738 524.5,303.5C 524.5,302.167 524.5,300.833 524.5,299.5C 523.167,299.5 521.833,299.5 520.5,299.5C 520.5,297.5 520.5,295.5 520.5,293.5C 522.621,293.325 524.621,293.659 526.5,294.5C 526.263,295.791 526.596,296.791 527.5,297.5C 528.5,297.5 529.5,297.5 530.5,297.5C 530.647,295.282 530.98,292.949 531.5,290.5C 532.962,289.529 534.295,289.862 535.5,291.5 Z"/></g>
<g><path style="opacity:1" fill="#dde0dd" d="M 530.5,297.5 C 529.5,297.5 528.5,297.5 527.5,297.5C 528.5,294.833 529.5,294.833 530.5,297.5 Z"/></g>
<g><path style="opacity:1" fill="#d0d5cd" d="M 535.5,297.5 C 535.948,295.535 536.948,295.202 538.5,296.5C 537.675,297.386 536.675,297.719 535.5,297.5 Z"/></g>
<g><path style="opacity:1" fill="#759371" d="M 542.5,293.5 C 543.568,292.566 544.901,292.232 546.5,292.5C 546.5,295.5 546.5,298.5 546.5,301.5C 548.38,301.229 549.713,301.896 550.5,303.5C 547.647,303.205 544.814,303.205 542,303.5C 543.657,300.554 544.824,297.22 545.5,293.5C 544.5,293.5 543.5,293.5 542.5,293.5 Z"/></g>
<g><path style="opacity:1" fill="#209d22" d="M 38.5,291.5 C 38.7373,292.791 38.404,293.791 37.5,294.5C 37.5386,293.244 37.0386,292.244 36,291.5C 35.6667,293.833 35.3333,296.167 35,298.5C 33.0876,299.692 31.0876,300.692 29,301.5C 28.4145,303.129 27.5812,304.629 26.5,306C 27.7192,308.384 27.7192,310.717 26.5,313C 30.0395,313.336 32.2061,315.169 33,318.5C 34.7328,316.398 36.7328,316.065 39,317.5C 40.1769,315.824 41.6769,314.491 43.5,313.5C 44.463,313.97 44.463,314.637 43.5,315.5C 42.8333,315.5 42.5,315.833 42.5,316.5C 41.9033,316.735 41.5699,317.235 41.5,318C 42.4138,319.406 43.0805,320.906 43.5,322.5C 43.5,322.833 43.5,323.167 43.5,323.5C 41.3281,325.846 40.6615,325.346 41.5,322C 41.3699,320.941 40.8699,320.108 40,319.5C 39.79,321.058 39.29,322.391 38.5,323.5C 38.7678,321.901 38.4345,320.568 37.5,319.5C 36.5,318.167 35.5,318.167 34.5,319.5C 33.5655,320.568 33.2322,321.901 33.5,323.5C 33.1667,324.5 32.5,325.167 31.5,325.5C 30.1001,324.9 29.1001,323.9 28.5,322.5C 29.449,320.263 30.1156,317.929 30.5,315.5C 27.1667,316.167 23.8333,316.833 20.5,317.5C 20.5,316.5 20.5,315.5 20.5,314.5C 21.0483,311.916 22.715,310.916 25.5,311.5C 25.5,310.5 25.5,309.5 25.5,308.5C 23.7354,307.539 21.7354,307.205 19.5,307.5C 17.8624,306.295 17.5291,304.962 18.5,303.5C 20.6119,302.725 22.6119,302.725 24.5,303.5C 25.1667,303.5 25.8333,303.5 26.5,303.5C 27.4345,302.432 27.7678,301.099 27.5,299.5C 26.1667,299.5 24.8333,299.5 23.5,299.5C 23.5,299.167 23.5,298.833 23.5,298.5C 23.0773,296.219 23.744,294.552 25.5,293.5C 25.8333,293.5 26.1667,293.5 26.5,293.5C 27.8284,294.507 28.8284,295.84 29.5,297.5C 30.9584,298.782 32.2918,298.782 33.5,297.5C 34.2907,295.691 34.2907,293.691 33.5,291.5C 34.4584,291.047 35.2917,290.381 36,289.5C 36.7083,290.381 37.5416,291.047 38.5,291.5 Z"/></g>
<g><path style="opacity:1" fill="#d7ddd6" d="M 33.5,297.5 C 32.325,297.719 31.325,297.386 30.5,296.5C 32.0517,295.202 33.0517,295.535 33.5,297.5 Z"/></g>
<g><path style="opacity:1" fill="#476342" d="M 48.5,297.5 C 48.3653,299.554 49.032,301.221 50.5,302.5C 49.2436,302.904 48.0769,303.571 47,304.5C 46.2352,304.43 45.7352,304.097 45.5,303.5C 48.1667,302.5 48.1667,301.5 45.5,300.5C 46.5,299.5 47.5,298.5 48.5,297.5 Z"/></g>
<g><path style="opacity:1" fill="#dedede" d="M 45.5,300.5 C 48.1667,301.5 48.1667,302.5 45.5,303.5C 45.5,302.5 45.5,301.5 45.5,300.5 Z"/></g>
<g><path style="opacity:1" fill="#4b7147" d="M 520.5,299.5 C 521.833,299.5 523.167,299.5 524.5,299.5C 524.5,300.833 524.5,302.167 524.5,303.5C 524.167,303.5 523.833,303.5 523.5,303.5C 522.833,299.5 522.167,299.5 521.5,303.5C 521.167,303.5 520.833,303.5 520.5,303.5C 519.065,302.904 517.398,302.904 515.5,303.5C 517.506,302.515 519.173,301.182 520.5,299.5 Z"/></g>
<g><path style="opacity:1" fill="#dfe0dc" d="M 523.5,303.5 C 522.833,303.5 522.167,303.5 521.5,303.5C 522.167,299.5 522.833,299.5 523.5,303.5 Z"/></g>
<g><path style="opacity:1" fill="#457142" d="M 23.5,299.5 C 24.8333,299.5 26.1667,299.5 27.5,299.5C 27.7678,301.099 27.4345,302.432 26.5,303.5C 25.8333,299.5 25.1667,299.5 24.5,303.5C 22.6119,302.725 20.6119,302.725 18.5,303.5C 20.5061,302.515 22.1727,301.182 23.5,299.5 Z"/></g>
<g><path style="opacity:1" fill="#d7dbda" d="M 26.5,303.5 C 25.8333,303.5 25.1667,303.5 24.5,303.5C 25.1667,299.5 25.8333,299.5 26.5,303.5 Z"/></g>
<g><path style="opacity:1" fill="#4f724d" d="M 18.5,303.5 C 17.5291,304.962 17.8624,306.295 19.5,307.5C 15.1387,306.228 14.8053,304.895 18.5,303.5 Z"/></g>
<g><path style="opacity:1" fill="#fdfbb0" d="M 57.5,297.5 C 58.7089,301.618 59.3755,305.951 59.5,310.5C 57.8227,306.455 57.1561,302.122 57.5,297.5 Z"/></g>
<g><path style="opacity:1" fill="#466a40" d="M 515.5,303.5 C 514.167,304.5 514.167,305.5 515.5,306.5C 511.69,305.246 511.69,304.246 515.5,303.5 Z"/></g>
<g><path style="opacity:1" fill="#4f744a" d="M 53.5,303.5 C 57.1654,304.293 57.1654,305.626 53.5,307.5C 54.4054,306.036 54.4054,304.702 53.5,303.5 Z"/></g>
<g><path style="opacity:1" fill="#23b022" d="M 520.5,303.5 C 519.391,304.29 518.058,304.79 516.5,305C 518.889,306.096 521.389,306.929 524,307.5C 524.78,309.387 524.613,311.054 523.5,312.5C 523.768,310.901 523.434,309.568 522.5,308.5C 520.735,307.539 518.735,307.205 516.5,307.5C 515.833,307.5 515.5,307.167 515.5,306.5C 514.167,305.5 514.167,304.5 515.5,303.5C 517.398,302.904 519.065,302.904 520.5,303.5 Z"/></g>
<g><path style="opacity:1" fill="#417d3c" d="M 550.5,303.5 C 551.675,303.281 552.675,303.614 553.5,304.5C 552.395,306.611 550.729,307.945 548.5,308.5C 546.833,308.5 545.167,308.5 543.5,308.5C 543.5,308.167 543.5,307.833 543.5,307.5C 545.527,307.662 547.527,307.495 549.5,307C 551.373,306.047 551.706,304.88 550.5,303.5 Z"/></g>
<g><path style="opacity:1" fill="#23661f" d="M 19.5,307.5 C 21.7354,307.205 23.7354,307.539 25.5,308.5C 24.0695,308.421 22.7362,308.754 21.5,309.5C 20.4777,309.145 19.811,308.478 19.5,307.5 Z"/></g>
<g><path style="opacity:1" fill="#2a6926" d="M 516.5,307.5 C 518.735,307.205 520.735,307.539 522.5,308.5C 520.045,310.138 518.045,309.805 516.5,307.5 Z"/></g>
<g><path style="opacity:1" fill="#5b8259" d="M 52.5,307.5 C 51.0582,308.82 50.3915,310.486 50.5,312.5C 49.1667,312.5 47.8333,312.5 46.5,312.5C 46.5,310.833 46.5,309.167 46.5,307.5C 48.5,307.5 50.5,307.5 52.5,307.5 Z"/></g>
<g><path style="opacity:1" fill="#2d682a" d="M 522.5,308.5 C 523.434,309.568 523.768,310.901 523.5,312.5C 521.708,312.366 520.042,312.699 518.5,313.5C 519.183,311.824 520.517,311.157 522.5,311.5C 522.5,310.5 522.5,309.5 522.5,308.5 Z"/></g>
<g><path style="opacity:1" fill="#728c6f" d="M 543.5,308.5 C 545.167,308.5 546.833,308.5 548.5,308.5C 547.766,309.708 547.433,311.041 547.5,312.5C 546.167,312.5 544.833,312.5 543.5,312.5C 543.5,311.167 543.5,309.833 543.5,308.5 Z"/></g>
<g><path style="opacity:1" fill="#4d7a49" d="M 518.5,313.5 C 518.461,314.583 518.127,315.583 517.5,316.5C 518.333,316.833 519.167,317.167 520,317.5C 522.27,316.14 524.77,315.473 527.5,315.5C 527.116,317.929 526.449,320.263 525.5,322.5C 524.566,321.432 524.232,320.099 524.5,318.5C 521.428,318.817 518.428,318.484 515.5,317.5C 516.035,315.739 517.035,314.406 518.5,313.5 Z"/></g>
<g><path style="opacity:1" fill="#e9e8ec" d="M 524.5,318.5 C 524.639,316.663 525.306,316.33 526.5,317.5C 526.043,318.298 525.376,318.631 524.5,318.5 Z"/></g>
<g><path style="opacity:1" fill="#306d2c" d="M 20.5,314.5 C 20.5,315.5 20.5,316.5 20.5,317.5C 23.8333,316.833 27.1667,316.167 30.5,315.5C 30.1156,317.929 29.449,320.263 28.5,322.5C 27.1826,320.713 27.516,319.046 29.5,317.5C 26.001,318.251 22.3344,318.251 18.5,317.5C 18.9424,316.261 19.6091,315.261 20.5,314.5 Z"/></g>
<g><path style="opacity:1" fill="#1fa022" d="M 523.5,312.5 C 524.609,313.29 525.942,313.79 527.5,314C 528.785,316.598 530.119,318.431 531.5,319.5C 531.371,321.216 531.038,322.883 530.5,324.5C 528.052,325.99 526.385,325.323 525.5,322.5C 526.449,320.263 527.116,317.929 527.5,315.5C 524.77,315.473 522.27,316.14 520,317.5C 519.167,317.167 518.333,316.833 517.5,316.5C 518.127,315.583 518.461,314.583 518.5,313.5C 520.042,312.699 521.708,312.366 523.5,312.5 Z"/></g>
<g><path style="opacity:1" fill="#b1beaf" d="M 37.5,319.5 C 36.5,322.167 35.5,322.167 34.5,319.5C 35.5,318.167 36.5,318.167 37.5,319.5 Z"/></g>
<g><path style="opacity:1" fill="#577a53" d="M 535.5,323.5 C 533.602,322.266 531.935,322.599 530.5,324.5C 531.038,322.883 531.371,321.216 531.5,319.5C 532.708,318.766 534.041,318.433 535.5,318.5C 535.5,320.167 535.5,321.833 535.5,323.5 Z"/></g>
<g><path style="opacity:1" fill="#3d6f3d" d="M 42.5,316.5 C 43.1079,317.8 43.7745,319.133 44.5,320.5C 44.4573,321.416 44.1239,322.083 43.5,322.5C 43.0805,320.906 42.4138,319.406 41.5,318C 41.5699,317.235 41.9033,316.735 42.5,316.5 Z"/></g>
<g><path style="opacity:1" fill="#31642f" d="M 539.5,316.5 C 540.108,317.8 540.775,319.133 541.5,320.5C 541.457,321.416 541.124,322.083 540.5,322.5C 540.08,320.906 539.414,319.406 538.5,318C 538.57,317.235 538.903,316.735 539.5,316.5 Z"/></g>
<g><path style="opacity:1" fill="#295e25" d="M 34.5,319.5 C 35.5,322.167 36.5,322.167 37.5,319.5C 38.4345,320.568 38.7678,321.901 38.5,323.5C 36.8333,322.167 35.1667,322.167 33.5,323.5C 33.2322,321.901 33.5655,320.568 34.5,319.5 Z"/></g>
<g><path style="opacity:1" fill="#2e7a2b" d="M 43.5,323.5 C 42.7042,328.361 41.0376,328.361 38.5,323.5C 39.29,322.391 39.79,321.058 40,319.5C 40.8699,320.108 41.3699,320.941 41.5,322C 40.6615,325.346 41.3281,325.846 43.5,323.5 Z"/></g>
<g><path style="opacity:1" fill="#3d603c" d="M 28.5,322.5 C 29.1001,323.9 30.1001,324.9 31.5,325.5C 31.189,326.478 30.5223,327.145 29.5,327.5C 28.5481,325.955 28.2148,324.288 28.5,322.5 Z"/></g>
<g><path style="opacity:1" fill="#141414" d="M 57.5,340.5 C 60.4296,345.79 62.263,351.456 63,357.5C 62.5212,355.354 61.1879,354.354 59,354.5C 54.9828,355.339 51.1495,356.672 47.5,358.5C 52.9216,362.596 58.5882,366.263 64.5,369.5C 65.6473,369.182 66.4806,368.516 67,367.5C 68.6906,370.901 70.1906,374.401 71.5,378C 65.804,373.536 59.6373,369.369 53,365.5C 49.633,369.88 46.633,374.546 44,379.5C 41.8159,382.866 40.4825,386.533 40,390.5C 37.8916,384.853 36.2249,379.187 35,373.5C 36.5874,374.727 37.9207,374.394 39,372.5C 41.7261,368.381 43.8928,364.048 45.5,359.5C 41.3072,359.953 37.3072,361.119 33.5,363C 32.7734,364.399 32.2734,365.899 32,367.5C 29.8916,361.853 28.2249,356.187 27,350.5C 27.691,353.591 29.5243,354.757 32.5,354C 40.4622,351.068 48.4622,348.235 56.5,345.5C 57.4519,343.955 57.7852,342.288 57.5,340.5 Z"/></g>
<g><path style="opacity:1" fill="#121212" d="M 530.5,360.5 C 529.167,359.833 527.833,359.167 526.5,358.5C 527.709,354.411 529.209,350.411 531,346.5C 531.955,351.588 535.122,354.254 540.5,354.5C 541.05,367.08 536.05,376.58 525.5,383C 511.613,385.119 504.279,379.119 503.5,365C 503.426,358.316 505.926,352.816 511,348.5C 511.72,346.888 511.554,345.388 510.5,344C 514.308,344.435 517.974,345.601 521.5,347.5C 510.544,348.619 505.711,354.619 507,365.5C 512.835,373.497 520.668,376.664 530.5,375C 535.376,372.086 537.042,367.92 535.5,362.5C 533.805,361.826 532.138,361.159 530.5,360.5 Z"/></g>
<g><path style="opacity:1" fill="#676767" d="M 526.5,358.5 C 527.833,359.167 529.167,359.833 530.5,360.5C 528.019,360.323 526.186,361.323 525,363.5C 524.797,361.609 525.297,359.943 526.5,358.5 Z"/></g>
<g><path style="opacity:1" fill="#ece519" d="M 415.5,93.5 C 460.531,124.981 490.197,166.981 504.5,219.5C 504.565,222.428 505.232,225.095 506.5,227.5C 507.301,229.042 507.634,230.708 507.5,232.5C 507.808,236.36 508.475,240.026 509.5,243.5C 518.179,303.83 505.512,358.83 471.5,408.5C 469.453,410.55 467.786,412.883 466.5,415.5C 452.103,433.565 435.769,449.565 417.5,463.5C 413.608,465.062 410.275,467.395 407.5,470.5C 384.827,484.079 360.494,494.079 334.5,500.5C 330.96,500.753 327.627,501.419 324.5,502.5C 324.167,502.5 323.833,502.5 323.5,502.5C 316.936,502.864 310.603,503.864 304.5,505.5C 288.991,505.83 273.658,505.496 258.5,504.5C 252.444,502.547 246.111,501.547 239.5,501.5C 235.833,500.833 232.167,500.167 228.5,499.5C 226.485,498.076 224.152,497.41 221.5,497.5C 155.653,476.686 107.486,435.019 77,372.5C 74.1177,363.954 70.7844,355.621 67,347.5C 66.0249,339.573 64.0249,331.906 61,324.5C 60.1706,319.863 59.6706,315.196 59.5,310.5C 59.3755,305.951 58.7089,301.618 57.5,297.5C 57.5,284.5 57.5,271.5 57.5,258.5C 59.0538,254.433 59.7204,250.1 59.5,245.5C 61.0538,241.433 61.7204,237.1 61.5,232.5C 63.2367,228.458 64.2367,224.124 64.5,219.5C 67.3,210.433 70.3,201.433 73.5,192.5C 75.2451,190.967 76.2451,188.967 76.5,186.5C 77.2829,184.657 77.9495,182.657 78.5,180.5C 78.9569,179.702 79.6236,179.369 80.5,179.5C 82.0744,179.063 83.2411,178.063 84,176.5C 84.7793,172.693 86.4459,169.36 89,166.5C 89.3333,167.167 89.6667,167.833 90,168.5C 90.4186,167.328 91.0853,166.328 92,165.5C 93.1131,166.711 94.2798,166.711 95.5,165.5C 96.2975,165.957 96.6309,166.624 96.5,167.5C 82.1075,196.327 73.4409,226.661 70.5,258.5C 69.8339,263.823 69.5006,269.323 69.5,275C 69.3272,283.388 69.9938,291.555 71.5,299.5C 82.0369,374.814 120.037,431.314 185.5,469C 249.788,500.938 314.454,501.604 379.5,471C 452.789,430.631 492.622,368.465 499,284.5C 501.019,226.218 483.352,174.885 446,130.5C 438.591,122.066 430.424,114.899 421.5,109C 422.71,110.039 423.71,111.206 424.5,112.5C 422.983,112.489 421.816,111.823 421,110.5C 420.586,110.957 420.086,111.291 419.5,111.5C 418.154,109.491 416.82,107.491 415.5,105.5C 418.768,104.513 422.102,104.18 425.5,104.5C 424.859,100.67 423.193,100.004 420.5,102.5C 418.929,101.691 417.262,101.357 415.5,101.5C 415.626,99.8002 416.293,98.3002 417.5,97C 416.571,95.9231 415.904,94.7564 415.5,93.5 Z"/></g>
<g><path style="opacity:1" fill="#b2ab2d" d="M 70.5,258.5 C 70.3547,272.183 70.688,285.85 71.5,299.5C 69.9938,291.555 69.3272,283.388 69.5,275C 69.5006,269.323 69.8339,263.823 70.5,258.5 Z"/></g>
<g><path style="opacity:1" fill="#151515" d="M 497.5,378.5 C 498.22,381.06 499.887,382.893 502.5,384C 510.329,388.08 517.996,392.413 525.5,397C 513.596,400.21 501.596,403.21 489.5,406C 496.167,409.667 502.833,413.333 509.5,417C 511.903,417.63 513.737,416.797 515,414.5C 513.555,418.183 511.721,421.85 509.5,425.5C 509.245,423.657 509.078,421.657 509,419.5C 502.079,414.955 494.912,410.788 487.5,407C 484.692,406.08 482.525,406.913 481,409.5C 482.357,405.613 484.19,401.78 486.5,398C 495.233,396.212 503.9,394.212 512.5,392C 507.555,387.687 501.888,385.354 495.5,385C 495,385.5 494.5,386 494,386.5C 494.38,383.579 495.547,380.912 497.5,378.5 Z"/></g>
<g><path style="opacity:1" fill="#141414" d="M 59.5,381.5 C 75.5049,382.188 83.3382,390.521 83,406.5C 78.3651,418.901 69.8651,422.734 57.5,418C 49.0024,411.509 45.8358,403.009 48,392.5C 50.4952,387.353 54.3286,383.686 59.5,381.5 Z"/></g>
<g><path style="opacity:1" fill="#f8f8f8" d="M 65.5,389.5 C 75.6518,387.494 80.1518,391.494 79,401.5C 74.4924,407.182 68.6591,411.015 61.5,413C 53.0229,413.181 49.5229,409.014 51,400.5C 54.9507,395.466 59.7841,391.799 65.5,389.5 Z"/></g>
<g><path style="opacity:1" fill="#fefcb2" d="M 471.5,408.5 C 470.99,411.674 469.323,414.008 466.5,415.5C 467.786,412.883 469.453,410.55 471.5,408.5 Z"/></g>
<g><path style="opacity:1" fill="#121212" d="M 69.5,437.5 C 70.791,437.737 71.791,437.404 72.5,436.5C 79.7262,431.298 86.8929,425.964 94,420.5C 94.1506,417.328 92.6506,415.161 89.5,414C 80.6103,415.329 80.277,413.829 88.5,409.5C 93.8932,415.273 99.0598,421.273 104,427.5C 106.34,429.791 107.673,432.458 108,435.5C 106.622,437.213 104.955,438.547 103,439.5C 105.601,434.52 104.601,430.187 100,426.5C 94.1667,431 88.3333,435.5 82.5,440C 79.8647,441.961 78.0314,444.461 77,447.5C 74.2833,444.29 71.7833,440.956 69.5,437.5 Z"/></g>
<g><path style="opacity:1" fill="#151515" d="M 470.5,421.5 C 479.834,423.267 489.167,425.1 498.5,427C 502.101,427.352 505.434,427.519 508.5,427.5C 505,431.833 501.5,436.167 498,440.5C 498.723,435.065 496.223,433.232 490.5,435C 488.451,437.593 486.285,440.093 484,442.5C 483.561,445.623 484.728,447.956 487.5,449.5C 489.155,448.612 490.822,448.112 492.5,448C 489.639,450.894 487.139,454.061 485,457.5C 484.667,455.167 484.333,452.833 484,450.5C 479.472,440.781 474.972,431.114 470.5,421.5 Z"/></g>
<g><path style="opacity:1" fill="#e6e6e6" d="M 477.5,431.5 C 481.262,431.627 484.928,432.294 488.5,433.5C 487.029,436.136 485.363,438.636 483.5,441C 482.668,441.688 482.002,441.521 481.5,440.5C 480.153,437.441 478.82,434.441 477.5,431.5 Z"/></g>
<g><path style="opacity:1" fill="#7c7c7c" d="M 72.5,436.5 C 71.791,437.404 70.791,437.737 69.5,437.5C 67.6827,436.781 67.0161,435.781 67.5,434.5C 68.8498,435.95 70.5165,436.617 72.5,436.5 Z"/></g>
<g><path style="opacity:1" fill="#161616" d="M 117.5,443.5 C 118.497,443.47 119.164,443.97 119.5,445C 114.126,456.771 110.626,468.938 109,481.5C 105.5,478 102,474.5 98.5,471C 101.834,470.248 103.501,468.081 103.5,464.5C 101.429,460.921 98.7621,457.754 95.5,455C 89.0485,455.09 87.2151,457.923 90,463.5C 87.1667,460.667 84.3333,457.833 81.5,455C 83.4432,455.305 85.4432,455.305 87.5,455C 97.699,451.389 107.699,447.556 117.5,443.5 Z"/></g>
<g><path style="opacity:1" fill="#eeeeee" d="M 104.5,450.5 C 105.873,450.343 107.207,450.51 108.5,451C 106.94,454.347 105.773,457.847 105,461.5C 102.5,459 100,456.5 97.5,454C 99.8583,452.724 102.192,451.558 104.5,450.5 Z"/></g>
<g><path style="opacity:1" fill="#161616" d="M 464.5,430.5 C 468.599,442.118 472.933,453.785 477.5,465.5C 477.167,465.833 476.833,466.167 476.5,466.5C 469.833,463.5 463.167,460.5 456.5,457.5C 456.167,457.833 455.833,458.167 455.5,458.5C 458.438,465.314 460.771,472.314 462.5,479.5C 452.215,476.529 442.215,472.696 432.5,468C 430.5,467.667 428.5,467.333 426.5,467C 430.015,463.318 433.682,459.818 437.5,456.5C 437.478,457.995 437.811,459.662 438.5,461.5C 444.309,464.408 450.309,466.741 456.5,468.5C 455.668,464.17 454.335,460.004 452.5,456C 448.503,453.802 444.503,452.968 440.5,453.5C 444.818,449.682 448.985,445.682 453,441.5C 451.869,443.977 452.369,446.143 454.5,448C 459.541,450.069 464.541,452.236 469.5,454.5C 468.848,448.36 467.015,442.36 464,436.5C 462.933,435.809 461.766,435.309 460.5,435C 462.041,433.629 463.375,432.129 464.5,430.5 Z"/></g>
<g><path style="opacity:1" fill="#fbfdb0" d="M 417.5,463.5 C 414.773,466.538 411.44,468.871 407.5,470.5C 410.275,467.395 413.608,465.062 417.5,463.5 Z"/></g>
<g><path style="opacity:1" fill="#131313" d="M 113.5,485.5 C 114.5,484.833 115.5,484.167 116.5,483.5C 121.835,476.659 127.002,469.659 132,462.5C 132.63,460.097 131.797,458.263 129.5,457C 137.957,460.849 145.457,466.349 152,473.5C 153.64,482.358 150.14,486.025 141.5,484.5C 145.075,488.368 145.408,492.535 142.5,497C 139.298,498.483 135.964,498.817 132.5,498C 125.796,494.32 119.462,490.153 113.5,485.5 Z"/></g>
<g><path style="opacity:1" fill="#eaeaea" d="M 139.5,466.5 C 144.346,467.509 146.18,470.509 145,475.5C 141.07,480.653 136.903,480.819 132.5,476C 134.965,472.893 137.298,469.726 139.5,466.5 Z"/></g>
<g><path style="opacity:1" fill="#121212" d="M 435.5,490.5 C 434.074,489.659 432.74,488.659 431.5,487.5C 428.833,486.167 426.167,484.833 423.5,483.5C 423.44,482.957 423.107,482.624 422.5,482.5C 421.831,484.631 421.165,486.631 420.5,488.5C 419.965,483.155 419.299,477.822 418.5,472.5C 418.833,471.833 419.167,471.167 419.5,470.5C 429.682,478.194 440.682,484.361 452.5,489C 447.812,492.831 442.812,495.831 437.5,498C 441.538,494.527 440.871,492.027 435.5,490.5 Z"/></g>
<g><path style="opacity:1" fill="#182107" d="M 71.5,299.5 C 70.688,285.85 70.3547,272.183 70.5,258.5C 73.4409,226.661 82.1075,196.327 96.5,167.5C 97.1667,167.167 97.8333,166.833 98.5,166.5C 98.3284,167.492 98.6618,168.158 99.5,168.5C 95.2822,176.268 91.6155,184.268 88.5,192.5C 87.6618,192.842 87.3284,193.508 87.5,194.5C 84.4576,202.63 81.791,210.963 79.5,219.5C 75.1336,234.389 72.8003,249.723 72.5,265.5C 72.22,279.222 72.8866,292.888 74.5,306.5C 74.2627,307.791 74.596,308.791 75.5,309.5C 76.577,316.552 77.9104,323.552 79.5,330.5C 79.3284,331.492 79.6618,332.158 80.5,332.5C 82.368,340.304 84.7013,347.971 87.5,355.5C 91.2772,364.051 95.2772,372.384 99.5,380.5C 104.857,390.563 111.19,399.896 118.5,408.5C 118.427,410.027 119.094,411.027 120.5,411.5C 132.96,428.295 147.96,442.295 165.5,453.5C 170.291,457.068 175.291,460.402 180.5,463.5C 192.687,471.095 205.687,476.762 219.5,480.5C 223.491,482.606 227.824,483.939 232.5,484.5C 255.769,490.777 279.435,492.777 303.5,490.5C 323.25,488.479 342.25,483.812 360.5,476.5C 372.845,472.16 384.512,466.494 395.5,459.5C 403.896,453.975 411.896,447.975 419.5,441.5C 430.872,432.462 440.872,422.129 449.5,410.5C 453.064,406.386 456.397,402.052 459.5,397.5C 468.057,385.055 475.057,371.722 480.5,357.5C 482.675,352.319 484.675,346.986 486.5,341.5C 496.989,306.934 499.323,271.934 493.5,236.5C 492.261,227.882 490.261,219.549 487.5,211.5C 484.012,198.194 479.012,185.527 472.5,173.5C 472.068,172.29 471.401,171.29 470.5,170.5C 461.535,153.026 450.035,137.359 436,123.5C 443.969,137.433 451.469,151.766 458.5,166.5C 458.928,169.785 459.928,172.785 461.5,175.5C 463.854,183.599 466.187,191.599 468.5,199.5C 468.77,204.028 469.437,208.361 470.5,212.5C 472.299,229.771 472.965,247.104 472.5,264.5C 470.552,279.152 467.886,293.818 464.5,308.5C 463.363,312.579 462.029,316.579 460.5,320.5C 457.37,328.997 453.703,337.33 449.5,345.5C 433.555,376.111 411.555,401.444 383.5,421.5C 379.9,423.11 376.566,425.11 373.5,427.5C 360.593,434.29 347.26,439.957 333.5,444.5C 306.803,451.914 279.803,453.247 252.5,448.5C 244.047,446.97 235.714,444.97 227.5,442.5C 226.486,441.326 225.153,440.66 223.5,440.5C 180.58,423.246 147.58,394.579 124.5,354.5C 124.068,353.29 123.401,352.29 122.5,351.5C 108.454,325.669 100.12,298.003 97.5,268.5C 98.4345,267.432 98.7678,266.099 98.5,264.5C 101.484,295.174 110.318,324.174 125,351.5C 152.703,401.102 194.203,432.435 249.5,445.5C 253.567,447.054 257.9,447.72 262.5,447.5C 269.41,448.861 276.41,449.527 283.5,449.5C 362.275,444.71 418.442,406.71 452,335.5C 484.248,255.821 475.082,181.488 424.5,112.5C 423.71,111.206 422.71,110.039 421.5,109C 430.424,114.899 438.591,122.066 446,130.5C 483.352,174.885 501.019,226.218 499,284.5C 492.622,368.465 452.789,430.631 379.5,471C 314.454,501.604 249.788,500.938 185.5,469C 120.037,431.314 82.0369,374.814 71.5,299.5 Z"/></g>
<g><path style="opacity:1" fill="#1c981e" d="M 180.5,463.5 C 181.251,462.427 182.251,462.26 183.5,463C 189.675,466.588 196.009,469.922 202.5,473C 208.601,475.062 214.267,477.562 219.5,480.5C 205.687,476.762 192.687,471.095 180.5,463.5 Z"/></g>
<g><path style="opacity:1" fill="#20a421" d="M 395.5,459.5 C 384.512,466.494 372.845,472.16 360.5,476.5C 371.51,471.171 382.843,465.171 394.5,458.5C 395.107,458.624 395.44,458.957 395.5,459.5 Z"/></g>
<g><path style="opacity:1" fill="#b9bb2e" d="M 249.5,445.5 C 254.122,445.156 258.455,445.823 262.5,447.5C 257.9,447.72 253.567,447.054 249.5,445.5 Z"/></g>
<g><path style="opacity:1" fill="#20a920" d="M 227.5,442.5 C 235.714,444.97 244.047,446.97 252.5,448.5C 243.658,448.632 234.991,446.798 226.5,443C 226.728,442.601 227.062,442.435 227.5,442.5 Z"/></g>
<g><path style="opacity:1" fill="#1c971d" d="M 373.5,427.5 C 373.938,427.435 374.272,427.601 374.5,428C 362.912,435.2 350.579,440.867 337.5,445C 335.934,445.765 334.601,445.598 333.5,444.5C 347.26,439.957 360.593,434.29 373.5,427.5 Z"/></g>
<g><path style="opacity:1" fill="#1ea11f" d="M 165.5,453.5 C 147.96,442.295 132.96,428.295 120.5,411.5C 120.435,411.062 120.601,410.728 121,410.5C 135.012,426.357 149.846,440.691 165.5,453.5 Z"/></g>
<g><path style="opacity:1" fill="#1fa220" d="M 449.5,410.5 C 440.872,422.129 430.872,432.462 419.5,441.5C 419.062,441.565 418.728,441.399 418.5,441C 429.008,432.158 438.508,422.325 447,411.5C 447.838,410.001 448.671,409.668 449.5,410.5 Z"/></g>
<g><path style="opacity:1" fill="#1fa221" d="M 124.5,354.5 C 147.58,394.579 180.58,423.246 223.5,440.5C 223.44,441.043 223.107,441.376 222.5,441.5C 179.34,424.683 146.34,396.016 123.5,355.5C 123.624,354.893 123.957,354.56 124.5,354.5 Z"/></g>
<g><path style="opacity:1" fill="#20a321" d="M 383.5,421.5 C 411.555,401.444 433.555,376.111 449.5,345.5C 450.363,344.537 451.03,344.537 451.5,345.5C 436.183,376.658 414.183,402.158 385.5,422C 384.563,422.692 383.897,422.525 383.5,421.5 Z"/></g>
<g><path style="opacity:1" fill="#1ea321" d="M 251.5,382.5 C 255.058,385.552 258.558,388.886 262,392.5C 265.333,396.5 268.667,400.5 272,404.5C 272.791,405.745 273.291,407.078 273.5,408.5C 265.798,400.132 258.464,391.466 251.5,382.5 Z"/></g>
<g><path style="opacity:1" fill="#20a420" d="M 118.5,408.5 C 111.19,399.896 104.857,390.563 99.5,380.5C 99.81,379.262 100.31,379.262 101,380.5C 107.085,389.735 112.918,399.069 118.5,408.5 Z"/></g>
<g><path style="opacity:1" fill="#26b429" d="M 281.5,386.5 C 281.828,397.679 281.495,408.679 280.5,419.5C 280.167,418.833 279.833,418.167 279.5,417.5C 280.145,407.068 280.811,396.735 281.5,386.5 Z"/></g>
<g><path style="opacity:1" fill="#1fa721" d="M 311.5,386.5 C 306.833,392.167 302.167,397.833 297.5,403.5C 296.957,403.44 296.624,403.107 296.5,402.5C 301.146,396.686 305.979,391.02 311,385.5C 311.399,385.728 311.565,386.062 311.5,386.5 Z"/></g>
<g><path style="opacity:1" fill="#21a524" d="M 286.5,377.5 C 287.147,378.274 287.48,379.274 287.5,380.5C 285.973,387.225 285.307,394.058 285.5,401C 285.506,406.216 286.173,411.049 287.5,415.5C 287.267,417.062 286.6,418.395 285.5,419.5C 284.505,408.679 284.172,397.679 284.5,386.5C 284.99,383.345 285.656,380.345 286.5,377.5 Z"/></g>
<g><path style="opacity:1" fill="#104c0f" d="M 284.5,386.5 C 284.172,397.679 284.505,408.679 285.5,419.5C 285.5,419.833 285.5,420.167 285.5,420.5C 284.171,415.208 283.504,409.542 283.5,403.5C 283.501,397.657 283.834,391.99 284.5,386.5 Z"/></g>
<g><path style="opacity:1" fill="#0d4a0d" d="M 281.5,385.5 C 282.166,391.157 282.499,396.99 282.5,403C 282.496,409.207 281.829,415.04 280.5,420.5C 280.5,420.167 280.5,419.833 280.5,419.5C 281.495,408.679 281.828,397.679 281.5,386.5C 281.5,386.167 281.5,385.833 281.5,385.5 Z"/></g>
<g><path style="opacity:1" fill="#20a221" d="M 480.5,357.5 C 475.057,371.722 468.057,385.055 459.5,397.5C 458.957,397.44 458.624,397.107 458.5,396.5C 466.907,384.353 473.741,371.353 479,357.5C 479.69,356.262 480.19,356.262 480.5,357.5 Z"/></g>
<g><path style="opacity:1" fill="#22a923" d="M 337.5,361.5 C 329.534,368.131 321.867,375.131 314.5,382.5C 320.605,374.56 327.605,367.393 335.5,361C 336.437,360.308 337.103,360.475 337.5,361.5 Z"/></g>
<g><path style="opacity:1" fill="#1e9d1d" d="M 273.5,349.5 C 274.962,356.146 276.296,362.812 277.5,369.5C 277.587,372.598 277.087,372.932 276,370.5C 275.632,365.696 274.632,361.03 273,356.5C 272.204,353.961 272.371,351.628 273.5,349.5 Z"/></g>
<g><path style="opacity:1" fill="#1e9e20" d="M 211.5,350.5 C 211.56,349.957 211.893,349.624 212.5,349.5C 214.717,351.679 216.717,351.679 218.5,349.5C 219.711,350.274 219.711,351.107 218.5,352C 231.271,360.272 242.271,370.439 251.5,382.5C 239.609,369.933 226.276,359.267 211.5,350.5 Z"/></g>
<g><path style="opacity:1" fill="#20a122" d="M 369.5,345.5 C 358.45,348.026 348.45,352.693 339.5,359.5C 346.881,352.122 356.215,347.122 367.5,344.5C 368.416,344.543 369.083,344.876 369.5,345.5 Z"/></g>
<g><path style="opacity:1" fill="#1fa120" d="M 87.5,355.5 C 84.7013,347.971 82.368,340.304 80.5,332.5C 80.4346,332.062 80.6012,331.728 81,331.5C 83.4964,338.989 85.9964,346.489 88.5,354C 88.4301,354.765 88.0967,355.265 87.5,355.5 Z"/></g>
<g><path style="opacity:1" fill="#1fa61e" d="M 439.5,331.5 C 428.798,332.95 418.131,334.617 407.5,336.5C 407.611,335.883 407.944,335.383 408.5,335C 416.226,333.99 423.892,332.657 431.5,331C 434.367,330.199 437.034,330.366 439.5,331.5 Z"/></g>
<g><path style="opacity:1" fill="#1d9d1d" d="M 127.5,331.5 C 128.274,330.853 129.274,330.52 130.5,330.5C 139.47,332.159 148.47,333.659 157.5,335C 158.056,335.383 158.389,335.883 158.5,336.5C 148.086,335.298 137.753,333.631 127.5,331.5 Z"/></g>
<g><path style="opacity:1" fill="#21ac23" d="M 79.5,330.5 C 77.9104,323.552 76.577,316.552 75.5,309.5C 75.369,308.761 75.5357,308.094 76,307.5C 77.3388,314.523 78.8388,321.523 80.5,328.5C 80.4573,329.416 80.1239,330.083 79.5,330.5 Z"/></g>
<g><path style="opacity:1" fill="#21ac23" d="M 464.5,308.5 C 465.097,308.735 465.43,309.235 465.5,310C 464.333,313.5 463.167,317 462,320.5C 461.221,323.097 460.721,323.097 460.5,320.5C 462.029,316.579 463.363,312.579 464.5,308.5 Z"/></g>
<g><path style="opacity:1" fill="#454618" d="M 284.5,296.5 C 284.333,321.836 284.5,347.169 285,372.5C 285.232,371.263 285.732,370.263 286.5,369.5C 286.263,370.791 286.596,371.791 287.5,372.5C 287.737,373.791 287.404,374.791 286.5,375.5C 286.316,373.075 285.649,373.075 284.5,375.5C 283.171,349.003 283.171,322.67 284.5,296.5 Z"/></g>
<g><path style="opacity:1" fill="#5a5921" d="M 281.5,296.5 C 282.833,323.167 282.833,349.833 281.5,376.5C 280.766,375.292 280.433,373.959 280.5,372.5C 281.498,347.339 281.831,322.005 281.5,296.5 Z"/></g>
<g><path style="opacity:1" fill="#21a41e" d="M 72.5,265.5 C 73.4613,277.682 74.4613,290.015 75.5,302.5C 75.4892,304.045 75.1558,305.378 74.5,306.5C 72.8866,292.888 72.22,279.222 72.5,265.5 Z"/></g>
<g><path style="opacity:1" fill="#1d991d" d="M 493.5,236.5 C 499.323,271.934 496.989,306.934 486.5,341.5C 485.903,341.265 485.57,340.765 485.5,340C 495.254,307.031 497.587,273.531 492.5,239.5C 492.52,238.274 492.853,237.274 493.5,236.5 Z"/></g>
<g><path style="opacity:1" fill="#1ea222" d="M 225.5,271.5 C 232.584,276.41 239.251,281.91 245.5,288C 249.728,292.726 254.061,297.226 258.5,301.5C 259.263,302.268 260.263,302.768 261.5,303C 260.167,303.667 258.833,303.667 257.5,303C 246.917,292.249 236.251,281.749 225.5,271.5 Z"/></g>
<g><path style="opacity:1" fill="#0b0c05" d="M 284.5,296.5 C 283.171,322.67 283.171,349.003 284.5,375.5C 285.649,373.075 286.316,373.075 286.5,375.5C 286.5,376.167 286.5,376.833 286.5,377.5C 285.656,380.345 284.99,383.345 284.5,386.5C 283.834,391.99 283.501,397.657 283.5,403.5C 283.504,409.542 284.171,415.208 285.5,420.5C 286.167,420.5 286.5,420.833 286.5,421.5C 283.601,426.822 281.267,426.489 279.5,420.5C 279.833,420.5 280.167,420.5 280.5,420.5C 281.829,415.04 282.496,409.207 282.5,403C 282.499,396.99 282.166,391.157 281.5,385.5C 281.167,383.5 280.833,381.5 280.5,379.5C 280.263,378.209 280.596,377.209 281.5,376.5C 282.833,349.833 282.833,323.167 281.5,296.5C 276.952,296.247 273.952,294.08 272.5,290C 272.439,288.289 273.106,286.956 274.5,286C 280.797,283.636 286.797,284.136 292.5,287.5C 293.91,289.949 293.576,292.116 291.5,294C 288.996,294.698 286.663,295.531 284.5,296.5 Z"/></g>
<g><path style="opacity:1" fill="#1b991e" d="M 267.5,228.5 C 263.434,251.344 262.434,274.344 264.5,297.5C 264.307,301.449 263.807,301.449 263,297.5C 262.23,298.598 261.397,298.598 260.5,297.5C 260.25,287.497 259.916,277.497 259.5,267.5C 260.321,270.641 260.821,273.975 261,277.5C 261.49,260.613 263.49,243.947 267,227.5C 267.399,227.728 267.565,228.062 267.5,228.5 Z"/></g>
<g><path style="opacity:1" fill="#1fa221" d="M 358.5,260.5 C 340.572,272.187 323.906,286.354 308.5,303C 303.917,303.934 302.417,302.1 304,297.5C 304.21,299.058 304.71,300.391 305.5,301.5C 305.897,302.525 306.563,302.692 307.5,302C 317.521,289.98 328.854,279.314 341.5,270C 346.818,266.176 352.484,263.009 358.5,260.5 Z"/></g>
<g><path style="opacity:1" fill="#c0bf33" d="M 299.5,258.5 C 300.166,263.656 300.499,268.989 300.5,274.5C 300.689,282.394 300.022,290.061 298.5,297.5C 299.27,284.515 299.603,271.515 299.5,258.5 Z"/></g>
<g><path style="opacity:1" fill="#1d9b1e" d="M 97.5,219.5 C 96.2382,235.844 96.2382,252.177 97.5,268.5C 100.12,298.003 108.454,325.669 122.5,351.5C 122.631,352.239 122.464,352.906 122,353.5C 98.8646,310.881 90.698,266.214 97.5,219.5 Z"/></g>
<g><path style="opacity:1" fill="#1c9a1e" d="M 313.5,214.5 C 310.169,218 307.002,221.666 304,225.5C 303.947,231.525 304.447,237.525 305.5,243.5C 305.657,244.873 305.49,246.207 305,247.5C 304.461,244.471 303.794,241.471 303,238.5C 302.896,250.53 303.563,262.53 305,274.5C 304.878,269.979 306.211,265.979 309,262.5C 309.399,262.728 309.565,263.062 309.5,263.5C 308.928,265.255 308.094,266.922 307,268.5C 305.96,277.472 305.46,286.472 305.5,295.5C 304.674,290.684 304.174,285.684 304,280.5C 303.667,284.833 303.333,289.167 303,293.5C 302.506,291.866 302.34,290.199 302.5,288.5C 304.23,264.719 301.896,241.386 295.5,218.5C 295.623,217.075 295.957,215.742 296.5,214.5C 297.298,220.36 298.798,226.36 301,232.5C 301.333,230.167 301.667,227.833 302,225.5C 305.346,220.637 309.179,216.97 313.5,214.5 Z"/></g>
<g><path style="opacity:1" fill="#20a321" d="M 199.5,257.5 C 208.869,260.016 217.202,264.35 224.5,270.5C 224.103,271.525 223.437,271.692 222.5,271C 215.219,265.65 207.552,261.15 199.5,257.5 Z"/></g>
<g><path style="opacity:1" fill="#1ea020" d="M 417.5,245.5 C 417.725,249.056 416.892,249.39 415,246.5C 405.637,248.341 396.304,250.341 387,252.5C 385.93,252.472 385.097,252.139 384.5,251.5C 395.327,248.572 406.327,246.572 417.5,245.5 Z"/></g>
<g><path style="opacity:1" fill="#20a522" d="M 173.5,250.5 C 182.025,251.715 190.358,253.715 198.5,256.5C 198.265,257.097 197.765,257.43 197,257.5C 188.918,255.594 181.084,253.261 173.5,250.5 Z"/></g>
<g><path style="opacity:1" fill="#157d1b" d="M 417.5,245.5 C 426.287,273.409 434.954,301.409 443.5,329.5C 442.423,330.705 441.09,331.372 439.5,331.5C 437.034,330.366 434.367,330.199 431.5,331C 423.892,332.657 416.226,333.99 408.5,335C 407.944,335.383 407.611,335.883 407.5,336.5C 394.939,339.335 382.273,342.335 369.5,345.5C 369.083,344.876 368.416,344.543 367.5,344.5C 356.215,347.122 346.881,352.122 339.5,359.5C 339.167,360.5 338.5,361.167 337.5,361.5C 337.103,360.475 336.437,360.308 335.5,361C 327.605,367.393 320.605,374.56 314.5,382.5C 314.262,384.404 313.262,385.738 311.5,386.5C 311.565,386.062 311.399,385.728 311,385.5C 305.979,391.02 301.146,396.686 296.5,402.5C 296.624,403.107 296.957,403.44 297.5,403.5C 294.514,407.817 291.18,411.817 287.5,415.5C 286.173,411.049 285.506,406.216 285.5,401C 285.307,394.058 285.973,387.225 287.5,380.5C 287.48,379.274 287.147,378.274 286.5,377.5C 286.5,376.833 286.5,376.167 286.5,375.5C 287.404,374.791 287.737,373.791 287.5,372.5C 293.804,344.67 298.804,316.67 302.5,288.5C 302.34,290.199 302.506,291.866 303,293.5C 303.333,289.167 303.667,284.833 304,280.5C 304.174,285.684 304.674,290.684 305.5,295.5C 305.5,297.5 305.5,299.5 305.5,301.5C 304.71,300.391 304.21,299.058 304,297.5C 302.417,302.1 303.917,303.934 308.5,303C 323.906,286.354 340.572,272.187 358.5,260.5C 366.792,256.735 375.459,253.735 384.5,251.5C 385.097,252.139 385.93,252.472 387,252.5C 396.304,250.341 405.637,248.341 415,246.5C 416.892,249.39 417.725,249.056 417.5,245.5 Z"/></g>
<g><path style="opacity:1" fill="#96982c" d="M 308.5,281.5 C 308.179,286.695 308.513,291.695 309.5,296.5C 309.44,297.043 309.107,297.376 308.5,297.5C 307.185,292.014 307.185,286.68 308.5,281.5 Z"/></g>
<g><path style="opacity:1" fill="#157c1b" d="M 157.5,246.5 C 163.095,247.232 168.429,248.565 173.5,250.5C 181.084,253.261 188.918,255.594 197,257.5C 197.765,257.43 198.265,257.097 198.5,256.5C 199.167,256.5 199.5,256.833 199.5,257.5C 207.552,261.15 215.219,265.65 222.5,271C 223.437,271.692 224.103,271.525 224.5,270.5C 225.167,270.5 225.5,270.833 225.5,271.5C 236.251,281.749 246.917,292.249 257.5,303C 258.833,303.667 260.167,303.667 261.5,303C 260.263,302.768 259.263,302.268 258.5,301.5C 260.176,300.817 260.843,299.483 260.5,297.5C 261.397,298.598 262.23,298.598 263,297.5C 263.807,301.449 264.307,301.449 264.5,297.5C 267.485,314.742 270.485,332.076 273.5,349.5C 272.371,351.628 272.204,353.961 273,356.5C 274.632,361.03 275.632,365.696 276,370.5C 277.087,372.932 277.587,372.598 277.5,369.5C 278.288,372.887 279.288,376.22 280.5,379.5C 280.833,381.5 281.167,383.5 281.5,385.5C 281.5,385.833 281.5,386.167 281.5,386.5C 280.811,396.735 280.145,407.068 279.5,417.5C 276.759,415.025 274.759,412.025 273.5,408.5C 273.291,407.078 272.791,405.745 272,404.5C 268.667,400.5 265.333,396.5 262,392.5C 258.558,388.886 255.058,385.552 251.5,382.5C 242.271,370.439 231.271,360.272 218.5,352C 219.711,351.107 219.711,350.274 218.5,349.5C 216.717,351.679 214.717,351.679 212.5,349.5C 211.893,349.624 211.56,349.957 211.5,350.5C 207.391,348.55 203.057,347.05 198.5,346C 184.954,343.309 171.621,340.142 158.5,336.5C 158.389,335.883 158.056,335.383 157.5,335C 148.47,333.659 139.47,332.159 130.5,330.5C 129.274,330.52 128.274,330.853 127.5,331.5C 125.833,331.5 124.167,331.5 122.5,331.5C 130.053,304.112 138.387,277.112 147.5,250.5C 148.809,250.134 149.809,248.801 150.5,246.5C 152.972,247.766 155.306,247.766 157.5,246.5 Z"/></g>
<g><path style="opacity:1" fill="#23b325" d="M 157.5,246.5 C 155.306,247.766 152.972,247.766 150.5,246.5C 149.809,248.801 148.809,250.134 147.5,250.5C 147.286,248.856 147.62,247.356 148.5,246C 151.475,245.956 154.475,246.123 157.5,246.5 Z"/></g>
<g><path style="opacity:1" fill="#585512" d="M 412.5,243.5 C 413.449,242.848 414.615,242.514 416,242.5C 417.681,242.608 418.848,243.275 419.5,244.5C 417.283,243.631 414.95,243.298 412.5,243.5 Z"/></g>
<g><path style="opacity:1" fill="#1ea321" d="M 322.5,230.5 C 323.239,230.369 323.906,230.536 324.5,231C 319.301,237.232 314.468,243.732 310,250.5C 308.951,251.517 307.784,251.684 306.5,251C 305.226,250.023 305.226,249.189 306.5,248.5C 307.386,249.776 308.386,249.776 309.5,248.5C 313.858,242.482 318.191,236.482 322.5,230.5 Z"/></g>
<g><path style="opacity:1" fill="#1a961c" d="M 472.5,264.5 C 472.965,247.104 472.299,229.771 470.5,212.5C 470.343,211.127 470.51,209.793 471,208.5C 474.739,229.394 475.405,250.394 473,271.5C 472.503,269.19 472.337,266.857 472.5,264.5 Z"/></g>
<g><path style="opacity:1" fill="#1ea020" d="M 405.5,211.5 C 381.642,212.959 359.642,219.959 339.5,232.5C 338.262,232.19 338.262,231.69 339.5,231C 360.096,217.872 382.096,211.372 405.5,211.5 Z"/></g>
<g><path style="opacity:1" fill="#1fa221" d="M 218.5,206.5 C 233.073,216.958 244.906,229.958 254,245.5C 255.257,247.746 257.09,249.079 259.5,249.5C 260.167,244.833 260.833,240.167 261.5,235.5C 262.152,236.449 262.486,237.615 262.5,239C 262,242.5 261.5,246 261,249.5C 259.412,251.968 257.578,252.134 255.5,250C 245.095,233.77 232.762,219.27 218.5,206.5 Z"/></g>
<g><path style="opacity:1" fill="#1e9e21" d="M 87.5,194.5 C 88.0967,194.735 88.4301,195.235 88.5,196C 85.7983,203.772 83.2983,211.605 81,219.5C 80.1932,223.449 79.6932,223.449 79.5,219.5C 81.791,210.963 84.4576,202.63 87.5,194.5 Z"/></g>
<g><path style="opacity:1" fill="#20a620" d="M 358.5,199.5 C 359.239,199.369 359.906,199.536 360.5,200C 353.92,203.574 347.587,207.574 341.5,212C 335.634,217.531 330.134,223.365 325,229.5C 324.601,229.272 324.435,228.938 324.5,228.5C 333.426,215.9 344.759,206.233 358.5,199.5 Z"/></g>
<g><path style="opacity:1" fill="#1fa120" d="M 159.5,199.5 C 159.761,202.775 159.761,206.108 159.5,209.5C 163.564,210.08 167.564,210.913 171.5,212C 171.272,212.399 170.938,212.565 170.5,212.5C 165.819,212.331 161.152,211.998 156.5,211.5C 157.09,207.397 158.09,203.397 159.5,199.5 Z"/></g>
<g><path style="opacity:1" fill="#ddd721" d="M 114.5,166.5 C 114.666,171.179 114.499,175.845 114,180.5C 112.667,179.833 111.667,178.833 111,177.5C 109.703,182.725 108.203,187.892 106.5,193C 108.278,195.225 108.778,197.725 108,200.5C 106.956,199.377 106.29,198.044 106,196.5C 105.833,197.5 105.667,198.5 105.5,199.5C 106.396,202.64 106.73,205.64 106.5,208.5C 105.372,209.262 104.205,209.929 103,210.5C 102.088,216.354 100.921,222.02 99.5,227.5C 100.189,213.181 102.689,199.181 107,185.5C 108.842,178.79 111.342,172.456 114.5,166.5 Z"/></g>
<g><path style="opacity:1" fill="#157f1b" d="M 405.5,211.5 C 382.096,211.372 360.096,217.872 339.5,231C 338.262,231.69 338.262,232.19 339.5,232.5C 328.184,241.484 318.184,251.818 309.5,263.5C 309.565,263.062 309.399,262.728 309,262.5C 306.211,265.979 304.878,269.979 305,274.5C 303.563,262.53 302.896,250.53 303,238.5C 303.794,241.471 304.461,244.471 305,247.5C 305.49,246.207 305.657,244.873 305.5,243.5C 306.451,244.919 306.784,246.585 306.5,248.5C 305.226,249.189 305.226,250.023 306.5,251C 307.784,251.684 308.951,251.517 310,250.5C 314.468,243.732 319.301,237.232 324.5,231C 323.906,230.536 323.239,230.369 322.5,230.5C 322.833,229.5 323.5,228.833 324.5,228.5C 324.435,228.938 324.601,229.272 325,229.5C 330.134,223.365 335.634,217.531 341.5,212C 347.587,207.574 353.92,203.574 360.5,200C 359.906,199.536 359.239,199.369 358.5,199.5C 372.862,192.282 388.195,188.948 404.5,189.5C 405.86,196.936 407.526,204.269 409.5,211.5C 408.167,211.5 406.833,211.5 405.5,211.5 Z"/></g>
<g><path style="opacity:1" fill="#827c30" d="M 307.5,241.5 C 308.167,242.5 308.833,243.5 309.5,244.5C 309.44,245.043 309.107,245.376 308.5,245.5C 307.571,244.311 307.238,242.978 307.5,241.5 Z"/></g>
<g><path style="opacity:1" fill="#1fa322" d="M 103.5,189.5 C 101.192,198.372 99.5258,207.372 98.5,216.5C 97.8442,215.378 97.5108,214.045 97.5,212.5C 98.6146,204.326 100.448,196.326 103,188.5C 103.399,188.728 103.565,189.062 103.5,189.5 Z"/></g>
<g><path style="opacity:1" fill="#939524" d="M 173.5,187.5 C 177.489,187.116 181.155,187.783 184.5,189.5C 180.64,189.192 176.974,188.525 173.5,187.5 Z"/></g>
<g><path style="opacity:1" fill="#20a222" d="M 350.5,182.5 C 342.664,187.92 334.997,193.587 327.5,199.5C 333.687,192 341.353,186.334 350.5,182.5 Z"/></g>
<g><path style="opacity:1" fill="#20a922" d="M 461.5,175.5 C 462.117,175.611 462.617,175.944 463,176.5C 465.768,183.966 467.602,191.633 468.5,199.5C 466.187,191.599 463.854,183.599 461.5,175.5 Z"/></g>
<g><path style="opacity:1" fill="#1c991f" d="M 472.5,173.5 C 479.012,185.527 484.012,198.194 487.5,211.5C 487.631,212.239 487.464,212.906 487,213.5C 483.176,200.697 478.176,188.364 472,176.5C 471.26,175.251 471.427,174.251 472.5,173.5 Z"/></g>
<g><path style="opacity:1" fill="#1e9e1f" d="M 182.5,172.5 C 183.097,171.861 183.93,171.528 185,171.5C 195.546,173.46 205.713,176.627 215.5,181C 234.744,193.244 251.077,208.578 264.5,227C 263.839,229.464 263.339,231.964 263,234.5C 262.536,233.906 262.369,233.239 262.5,232.5C 262.663,230.143 262.497,227.81 262,225.5C 254.5,217.333 247,209.167 239.5,201C 223.436,185.635 204.436,176.135 182.5,172.5 Z"/></g>
<g><path style="opacity:1" fill="#1fa422" d="M 374.5,174.5 C 366.279,176.574 358.279,179.24 350.5,182.5C 357.81,177.174 365.81,174.508 374.5,174.5 Z"/></g>
<g><path style="opacity:1" fill="#1c961f" d="M 470.5,170.5 C 470.631,171.239 470.464,171.906 470,172.5C 465.48,163.444 459.98,155.111 453.5,147.5C 452.692,147.808 452.025,148.308 451.5,149C 454.536,154.568 456.869,160.402 458.5,166.5C 451.469,151.766 443.969,137.433 436,123.5C 450.035,137.359 461.535,153.026 470.5,170.5 Z"/></g>
<g><path style="opacity:1" fill="#f1f1f1" d="M 130.5,478.5 C 136.192,480.002 138.025,483.668 136,489.5C 133.091,492.394 129.591,493.227 125.5,492C 123.789,490.867 123.289,489.367 124,487.5C 126.385,484.621 128.552,481.621 130.5,478.5 Z"/></g>
<g><path style="opacity:1" fill="#7d7d7d" d="M 116.5,483.5 C 115.5,484.167 114.5,484.833 113.5,485.5C 112.373,484.878 111.373,484.045 110.5,483C 112.425,483.135 114.425,483.302 116.5,483.5 Z"/></g>
<g><path style="opacity:1" fill="#e7e7e7" d="M 423.5,483.5 C 426.167,484.833 428.833,486.167 431.5,487.5C 429.543,490.446 426.876,492.779 423.5,494.5C 422.192,490.685 422.192,487.019 423.5,483.5 Z"/></g>
<g><path style="opacity:1" fill="#141414" d="M 170.5,484.5 C 172.317,496.125 173.15,508.125 173,520.5C 173.5,521 174,521.5 174.5,522C 169.713,520.615 165.046,518.615 160.5,516C 161.448,515.517 162.448,515.351 163.5,515.5C 163.817,512.428 163.484,509.428 162.5,506.5C 158.919,504.363 155.253,502.863 151.5,502C 146.772,504.222 146.439,506.889 150.5,510C 146.559,509.201 142.893,507.534 139.5,505C 141.5,504.667 143.5,504.333 145.5,504C 154.019,497.636 162.353,491.136 170.5,484.5 Z"/></g>
<g><path style="opacity:1" fill="#198f19" d="M 232.5,484.5 C 232.917,483.876 233.584,483.543 234.5,483.5C 257.372,488.505 280.372,490.838 303.5,490.5C 279.435,492.777 255.769,490.777 232.5,484.5 Z"/></g>
<g><path style="opacity:1" fill="#101010" d="M 387.5,525.5 C 386.833,524.5 386.167,523.5 385.5,522.5C 382.287,514.404 378.787,506.404 375,498.5C 373.933,497.809 372.766,497.309 371.5,497C 377.627,493.621 383.961,490.621 390.5,488C 397.416,486.124 402.083,488.458 404.5,495C 404.081,498.425 402.414,501.091 399.5,503C 405.495,506.832 411.828,509.832 418.5,512C 414.942,513.362 411.442,514.862 408,516.5C 402.947,514.39 398.114,511.89 393.5,509C 392.207,508.51 390.873,508.343 389.5,508.5C 390.428,512.362 391.928,516.029 394,519.5C 395.399,520.227 396.899,520.727 398.5,521C 394.812,522.513 391.145,524.013 387.5,525.5 Z"/></g>
<g><path style="opacity:1" fill="#f0f0f0" d="M 385.5,491.5 C 393.113,490.614 396.613,493.947 396,501.5C 394.213,503.958 391.879,505.624 389,506.5C 386.069,502.976 383.903,498.976 382.5,494.5C 383.34,493.265 384.34,492.265 385.5,491.5 Z"/></g>
<g><path style="opacity:1" fill="#e4e4e4" d="M 163.5,492.5 C 164.483,496.298 164.817,500.298 164.5,504.5C 160.813,503.824 157.48,502.324 154.5,500C 157.69,497.636 160.69,495.136 163.5,492.5 Z"/></g>
<g><path style="opacity:1" fill="#fefdb5" d="M 221.5,497.5 C 224.152,497.41 226.485,498.076 228.5,499.5C 225.848,499.59 223.515,498.924 221.5,497.5 Z"/></g>
<g><path style="opacity:1" fill="#101010" d="M 186.5,492.5 C 192.357,494.953 198.357,497.12 204.5,499C 207.912,500.455 211.079,502.288 214,504.5C 217.184,512.803 214.35,517.136 205.5,517.5C 207.15,523.954 209.483,530.12 212.5,536C 212,536.167 211.5,536.333 211,536.5C 207.811,535.462 204.811,534.129 202,532.5C 200.267,526.052 197.767,520.052 194.5,514.5C 191.887,517.643 190.221,521.31 189.5,525.5C 190.054,527.628 191.387,529.128 193.5,530C 188.072,528.97 182.739,527.304 177.5,525C 178.766,524.691 179.933,524.191 181,523.5C 184.517,514.297 187.184,504.964 189,495.5C 187.583,494.922 186.75,493.922 186.5,492.5 Z"/></g>
<g><path style="opacity:1" fill="#efefef" d="M 198.5,499.5 C 208.383,501.535 210.05,506.369 203.5,514C 201.167,514.667 198.833,514.667 196.5,514C 195.422,513.326 194.755,512.326 194.5,511C 195.739,507.114 197.073,503.281 198.5,499.5 Z"/></g>
<g><path style="opacity:1" fill="#f8f879" d="M 239.5,501.5 C 246.111,501.547 252.444,502.547 258.5,504.5C 251.815,504.872 245.481,503.872 239.5,501.5 Z"/></g>
<g><path style="opacity:1" fill="#fdfdb5" d="M 334.5,500.5 C 334.082,501.222 333.416,501.722 332.5,502C 329.854,502.497 327.187,502.664 324.5,502.5C 327.627,501.419 330.96,500.753 334.5,500.5 Z"/></g>
<g><path style="opacity:1" fill="#2c2c2c" d="M 423.5,483.5 C 422.192,487.019 422.192,490.685 423.5,494.5C 426.876,492.779 429.543,490.446 431.5,487.5C 432.74,488.659 434.074,489.659 435.5,490.5C 431.054,491.306 427.221,493.306 424,496.5C 422.647,502.386 424.813,504.553 430.5,503C 427.42,505.29 424.253,507.457 421,509.5C 421.698,502.555 421.531,495.555 420.5,488.5C 421.165,486.631 421.831,484.631 422.5,482.5C 423.107,482.624 423.44,482.957 423.5,483.5 Z"/></g>
<g><path style="opacity:1" fill="#fdfdb3" d="M 323.5,502.5 C 317.519,504.872 311.185,505.872 304.5,505.5C 310.603,503.864 316.936,502.864 323.5,502.5 Z"/></g>
<g><path style="opacity:1" fill="#151515" d="M 352.5,502.5 C 353.239,502.369 353.906,502.536 354.5,503C 359.333,508.5 364.167,514 369,519.5C 372.397,523.401 376.23,526.734 380.5,529.5C 375.822,531.003 371.155,532.17 366.5,533C 367.517,531.951 367.684,530.784 367,529.5C 365.833,528.333 364.667,527.167 363.5,526C 359.087,525.849 354.754,526.516 350.5,528C 349.398,530.401 349.231,532.901 350,535.5C 351.399,536.227 352.899,536.727 354.5,537C 351.18,538.116 347.847,538.783 344.5,539C 345.893,537.829 346.727,536.329 347,534.5C 349.159,523.872 350.993,513.205 352.5,502.5 Z"/></g>
<g><path style="opacity:1" fill="#141414" d="M 234.5,507.5 C 234.167,508.167 233.833,508.833 233.5,509.5C 231.282,516.744 229.615,524.244 228.5,532C 229.726,539.783 234.059,542.116 241.5,539C 243.487,537.681 244.654,535.848 245,533.5C 247.052,526.215 247.886,518.881 247.5,511.5C 246.5,511 245.5,510.5 244.5,510C 248.524,510.136 252.524,510.803 256.5,512C 254.324,512.163 252.491,512.996 251,514.5C 250.083,522.338 248.416,530.004 246,537.5C 239.833,543.149 233,543.982 225.5,540C 220.741,535.509 219.241,530.009 221,523.5C 221.754,518.983 222.588,514.483 223.5,510C 223.325,508.342 222.658,507.009 221.5,506C 225.809,506.271 230.142,506.771 234.5,507.5 Z"/></g>
<g><path style="opacity:1" fill="#898989" d="M 234.5,507.5 C 235.978,507.238 237.311,507.571 238.5,508.5C 236.955,509.452 235.288,509.785 233.5,509.5C 233.833,508.833 234.167,508.167 234.5,507.5 Z"/></g>
<g><path style="opacity:1" fill="#7b7b7b" d="M 300.5,512.5 C 300.167,513.167 299.833,513.833 299.5,514.5C 298.022,514.762 296.689,514.429 295.5,513.5C 297.045,512.548 298.712,512.215 300.5,512.5 Z"/></g>
<g><path style="opacity:1" fill="#ededed" d="M 352.5,514.5 C 353.239,514.369 353.906,514.536 354.5,515C 356.461,517.963 358.794,520.629 361.5,523C 358.232,524.15 354.899,524.984 351.5,525.5C 351.942,521.846 352.276,518.179 352.5,514.5 Z"/></g>
<g><path style="opacity:1" fill="#131313" d="M 299.5,514.5 C 299.833,513.833 300.167,513.167 300.5,512.5C 304.476,511.669 308.476,511.503 312.5,512C 310.148,512.576 309.148,514.076 309.5,516.5C 309.889,519.892 310.556,523.225 311.5,526.5C 316.446,523.057 320.946,519.057 325,514.5C 325.711,512.633 325.211,511.133 323.5,510C 327.517,509.329 331.517,508.996 335.5,509C 329.394,512.938 324.06,517.771 319.5,523.5C 325.603,531.03 332.936,536.864 341.5,541C 335.201,542.33 328.868,542.996 322.5,543C 324.158,542.275 324.658,541.108 324,539.5C 320.61,535.607 316.777,532.273 312.5,529.5C 312.167,530.333 311.833,531.167 311.5,532C 312.093,535.151 312.593,538.318 313,541.5C 314.098,542.967 315.598,543.801 317.5,544C 311.522,545.257 305.522,545.923 299.5,546C 300.766,545.691 301.933,545.191 303,544.5C 303.575,534.761 302.908,525.094 301,515.5C 300.617,514.944 300.117,514.611 299.5,514.5 Z"/></g>
<g><path style="opacity:1" fill="#5d5d5d" d="M 385.5,522.5 C 386.167,523.5 386.833,524.5 387.5,525.5C 386.152,526.601 384.652,527.601 383,528.5C 384.309,526.92 385.142,524.92 385.5,522.5 Z"/></g>
<g><path style="opacity:1" fill="#020202" d="M 267.5,532.5 C 272.5,532.5 277.5,532.5 282.5,532.5C 282.5,533.833 282.5,535.167 282.5,536.5C 277.5,536.5 272.5,536.5 267.5,536.5C 267.5,535.167 267.5,533.833 267.5,532.5 Z"/></g>
<g><path style="opacity:1" fill="#616161" d="M 267.5,532.5 C 272.64,531.512 277.974,531.179 283.5,531.5C 283.5,533.5 283.5,535.5 283.5,537.5C 277.974,537.821 272.64,537.488 267.5,536.5C 272.5,536.5 277.5,536.5 282.5,536.5C 282.5,535.167 282.5,533.833 282.5,532.5C 277.5,532.5 272.5,532.5 267.5,532.5 Z"/></g>
</svg>
